<svg width="2991" height="2123" xmlns="http://www.w3.org/2000/svg" xmlns:xlink="http://www.w3.org/1999/xlink" xml:space="preserve" overflow="hidden"><defs><clipPath id="clip0"><rect x="163" y="196" width="2991" height="2123"/></clipPath></defs><g clip-path="url(#clip0)" transform="translate(-163 -196)"><rect x="165.5" y="198.5" width="2970" height="2118" stroke="#FFFFFF" stroke-width="3.4375" stroke-linecap="round" stroke-linejoin="round" stroke-miterlimit="10" fill="#FFFFFF"/><rect x="165.5" y="198.5" width="2970" height="2118" stroke="#FFFFFF" stroke-width="4.89009" stroke-linecap="round" stroke-linejoin="round" stroke-miterlimit="10" fill="#FFFFFF"/><path d="M481 948 509.5 921.038 538 910.138 566.5 903.182 595 899.174 623.5 891.523 652 882.338 680.5 876.134 709 870.178 737.5 866.718 766 868.093 794.5 859.414 823 793.113 851.5 797.878 880 773.3 908.5 802.896 937 435.271 965.5 567.908 994 574.272 1022.5 475.723 1051 554.864 1079.5 499.014 1108 485.291 1136.5 501.002 1165 404.51 1193.5 459.027 1222 459.624 1250.5 454.758 1279 449.62 1307.5 444.648 1336 452.061 1364.5 448.849 1393 442.664 1421.5 435.271 1450 428.069 1478.5 421.314 1507 414.644 1535.5 407.989 1564 401.166 1592.5 394.172 1621 387 1621 449.174 1592.5 450.516 1564 452.038 1535.5 453.73 1507 455.576 1478.5 457.492 1450 459.238 1421.5 462.071 1393 464.436 1364.5 466.403 1336 464.87 1307.5 457.372 1279 458.618 1250.5 460.335 1222 462.138 1193.5 459.027 1165 404.51 1136.5 501.002 1108 485.291 1079.5 499.014 1051 554.864 1022.5 475.723 994 574.272 965.5 567.908 937 435.271 908.5 802.896 880 773.3 851.5 797.878 823 793.113 794.5 859.414 766 868.093 737.5 866.718 709 870.178 680.5 876.134 652 882.338 623.5 891.523 595 899.174 566.5 903.182 538 910.138 509.5 921.038Z" fill="#FF6718" fill-rule="evenodd" fill-opacity="0.4"/><path d="M481.5 948.5 510 921.538 538.5 910.638 567 903.682 595.5 899.674 624 892.023 652.5 882.838 681 876.633 709.5 870.678 738 867.217 766.5 868.593 795 859.914 823.5 793.613 852 798.378 880.5 773.8 909 803.396 937.5 435.771 966 568.408 994.5 574.772 1023 476.223 1051.5 555.364 1080 499.513 1108.5 485.791 1137 501.502 1165.5 405.01 1194 459.527 1222.5 460.124 1251 455.258 1279.5 450.119 1308 445.147 1336.5 452.561 1365 449.349 1393.5 443.164 1422 435.771 1450.5 428.569 1479 421.814 1507.5 415.144 1536 408.489 1564.5 401.666 1593 394.672 1621.5 387.5" stroke="#BEBEBE" stroke-width="14.6706" stroke-linejoin="round" stroke-miterlimit="10" fill="none" fill-rule="evenodd"/><path d="M481.5 948.5 510 921.512 538.5 910.602 567 903.64 595.5 899.628 624 891.97 652.5 882.776 681 876.565 709.5 870.604 738 867.141 766.5 868.517 795 859.83 823.5 793.467 852 798.237 880.5 773.635 909 803.259 937.5 435.289 966 568.051 994.5 574.421 1023 475.779 1051.5 554.995 1080 499.092 1108.5 485.356 1137 501.082 1165.5 404.5 1194 459.067 1222.5 462.181 1251 460.377 1279.5 458.658 1308 457.411 1336.5 464.916 1365 466.45 1393.5 464.482 1422 462.115 1450.5 459.278 1479 457.531 1507.5 455.613 1536 453.765 1564.5 452.072 1593 450.548 1621.5 449.206" stroke="#FF6718" stroke-width="14.6706" stroke-linejoin="round" stroke-miterlimit="10" fill="none" fill-rule="evenodd"/><path d="M1609.5 570C1609.5 563.649 1614.65 558.5 1621 558.5 1627.35 558.5 1632.5 563.649 1632.5 570 1632.5 576.351 1627.35 581.5 1621 581.5 1614.65 581.5 1609.5 576.351 1609.5 570Z" stroke="#004678" stroke-width="3.24803" stroke-linecap="round" stroke-linejoin="round" stroke-miterlimit="10" fill="#004678" fill-rule="evenodd"/><path d="M1609.5 666C1609.5 659.649 1614.65 654.5 1621 654.5 1627.35 654.5 1632.5 659.649 1632.5 666 1632.5 672.351 1627.35 677.5 1621 677.5 1614.65 677.5 1609.5 672.351 1609.5 666Z" stroke="#AFDAFF" stroke-width="3.24803" stroke-linecap="round" stroke-linejoin="round" stroke-miterlimit="10" fill="#AFDAFF" fill-rule="evenodd"/><path d="M1609.5 627.5C1609.5 620.873 1614.65 615.5 1621 615.5 1627.35 615.5 1632.5 620.873 1632.5 627.5 1632.5 634.127 1627.35 639.5 1621 639.5 1614.65 639.5 1609.5 634.127 1609.5 627.5Z" stroke="#BF9000" stroke-width="3.24803" stroke-linecap="round" stroke-linejoin="round" stroke-miterlimit="10" fill="#BF9000" fill-rule="evenodd"/><path d="M1609.5 714C1609.5 707.649 1614.65 702.5 1621 702.5 1627.35 702.5 1632.5 707.649 1632.5 714 1632.5 720.351 1627.35 725.5 1621 725.5 1614.65 725.5 1609.5 720.351 1609.5 714Z" stroke="#FFC000" stroke-width="3.24803" stroke-linecap="round" stroke-linejoin="round" stroke-miterlimit="10" fill="#FFC000" fill-rule="evenodd"/><path d="M481 1756.22 509.5 1682.95 538 1654.67 566.5 1624.23 595 1608.92 623.5 1582.88 652 1560.99 680.5 1554.46 709 1589.17 737.5 1584.8 766 1587.83 794.5 1581.3 823 1465.98 851.5 1417.84 880 1377 908.5 1415.92 937 1806.46 965.5 1789.9 994 1792.31 1022.5 1765.25 1051 1736.49 1079.5 1719.59 1108 1690.61 1136.5 1669.54 1165 1682.43 1193.5 1688.43 1222 1694.52 1250.5 1686.8 1279 1678.91 1307.5 1678.72 1336 1712.13 1364.5 1713.03 1393 1707.4 1421.5 1698.16 1450 1690.55 1478.5 1684.64 1507 1679.13 1535.5 1674.24 1564 1669.31 1592.5 1664.35 1621 1659.34 1621 1832 1592.5 1824.96 1564 1818.18 1535.5 1811.65 1507 1805.37 1478.5 1799.19 1450 1791.89 1421.5 1787.65 1393 1783.95 1364.5 1778.1 1336 1761.92 1307.5 1730.63 1279 1718.05 1250.5 1712.38 1222 1706.7 1193.5 1688.43 1165 1682.43 1136.5 1669.54 1108 1690.61 1079.5 1719.59 1051 1736.49 1022.5 1765.25 994 1792.31 965.5 1789.9 937 1806.46 908.5 1415.92 880 1377 851.5 1417.84 823 1465.98 794.5 1581.3 766 1587.83 737.5 1584.8 709 1589.17 680.5 1554.46 652 1560.99 623.5 1582.88 595 1608.92 566.5 1624.23 538 1654.67 509.5 1682.95Z" fill="#FF6718" fill-rule="evenodd" fill-opacity="0.4"/><path d="M481.5 1756.31 510 1683.12 538.5 1654.87 567 1624.46 595.5 1609.17 624 1583.16 652.5 1561.29 681 1554.77 709.5 1589.44 738 1585.08 766.5 1588.1 795 1581.58 823.5 1466.38 852 1418.3 880.5 1377.5 909 1416.38 937.5 1806.5 966 1789.96 994.5 1792.36 1023 1765.33 1051.5 1736.6 1080 1719.72 1108.5 1690.77 1137 1669.72 1165.5 1682.6 1194 1688.6 1222.5 1694.68 1251 1686.96 1279.5 1679.09 1308 1678.9 1336.5 1712.26 1365 1713.17 1393.5 1707.55 1422 1698.32 1450.5 1690.71 1479 1684.8 1507.5 1679.3 1536 1674.42 1564.5 1669.5 1593 1664.53 1621.5 1659.53" stroke="#BEBEBE" stroke-width="14.6706" stroke-linejoin="round" stroke-miterlimit="10" fill="none" fill-rule="evenodd"/><path d="M481.5 1756.72 510 1683.45 538.5 1655.17 567 1624.73 595.5 1609.42 624 1583.38 652.5 1561.49 681 1554.96 709.5 1589.67 738 1585.3 766.5 1588.33 795 1581.8 823.5 1466.48 852 1418.34 880.5 1377.5 909 1416.42 937.5 1806.96 966 1790.4 994.5 1792.81 1023 1765.75 1051.5 1736.99 1080 1720.09 1108.5 1691.11 1137 1670.04 1165.5 1682.93 1194 1688.93 1222.5 1707.2 1251 1712.88 1279.5 1718.55 1308 1731.13 1336.5 1762.42 1365 1778.6 1393.5 1784.45 1422 1788.15 1450.5 1792.39 1479 1799.69 1507.5 1805.87 1536 1812.15 1564.5 1818.68 1593 1825.46 1621.5 1832.5" stroke="#FF6718" stroke-width="14.6706" stroke-linejoin="round" stroke-miterlimit="10" fill="none" fill-rule="evenodd"/><path d="M1609.5 1751.5C1609.5 1744.87 1614.65 1739.5 1621 1739.5 1627.35 1739.5 1632.5 1744.87 1632.5 1751.5 1632.5 1758.13 1627.35 1763.5 1621 1763.5 1614.65 1763.5 1609.5 1758.13 1609.5 1751.5Z" stroke="#004678" stroke-width="3.24803" stroke-linecap="round" stroke-linejoin="round" stroke-miterlimit="10" fill="#004678" fill-rule="evenodd"/><path d="M1609.5 1827C1609.5 1820.65 1614.65 1815.5 1621 1815.5 1627.35 1815.5 1632.5 1820.65 1632.5 1827 1632.5 1833.35 1627.35 1838.5 1621 1838.5 1614.65 1838.5 1609.5 1833.35 1609.5 1827Z" stroke="#AFDAFF" stroke-width="3.24803" stroke-linecap="round" stroke-linejoin="round" stroke-miterlimit="10" fill="#AFDAFF" fill-rule="evenodd"/><path d="M1609.5 1844C1609.5 1837.65 1614.65 1832.5 1621 1832.5 1627.35 1832.5 1632.5 1837.65 1632.5 1844 1632.5 1850.35 1627.35 1855.5 1621 1855.5 1614.65 1855.5 1609.5 1850.35 1609.5 1844Z" stroke="#BF9000" stroke-width="3.24803" stroke-linecap="round" stroke-linejoin="round" stroke-miterlimit="10" fill="#BF9000" fill-rule="evenodd"/><path d="M1609.5 1907C1609.5 1900.65 1614.65 1895.5 1621 1895.5 1627.35 1895.5 1632.5 1900.65 1632.5 1907 1632.5 1913.35 1627.35 1918.5 1621 1918.5 1614.65 1918.5 1609.5 1913.35 1609.5 1907Z" stroke="#FFC000" stroke-width="3.24803" stroke-linecap="round" stroke-linejoin="round" stroke-miterlimit="10" fill="#FFC000" fill-rule="evenodd"/><path d="M1913 923.167 1941.5 891.036 1970 878.358 1998.5 870.736 2027 861.291 2055.5 855.781 2084 834.004 2112.5 806.56 2141 808.056 2169.5 805.381 2198 789.408 2226.5 785.625 2255 736.722 2283.5 709.003 2312 679.973 2340.5 673 2369 839.736 2397.5 813.827 2426 800.045 2454.5 804.524 2483 793.01 2511.5 954 2540 929.501 2568.5 917.85 2597 892.323 2625.5 897.782 2654 813.978 2682.5 803.156 2711 795.501 2739.5 789.289 2768 816.828 2796.5 813.273 2825 801.811 2853.5 790.359 2882 780.654 2910.5 772.289 2939 763.735 2967.5 756.818 2996 749.797 3024.5 742.677 3053 735.448 3053 910.924 3024.5 906.071 2996 901.38 2967.5 896.852 2939 892.467 2910.5 889.135 2882 884.074 2853.5 881.722 2825 879.988 2796.5 879.296 2768 867.392 2739.5 841.761 2711 834.809 2682.5 828.976 2654 826.238 2625.5 897.782 2597 892.323 2568.5 917.85 2540 929.501 2511.5 954 2483 793.01 2454.5 804.524 2426 800.045 2397.5 813.827 2369 839.736 2340.5 673 2312 679.973 2283.5 709.003 2255 736.722 2226.5 785.625 2198 789.408 2169.5 805.381 2141 808.056 2112.5 806.56 2084 834.004 2055.5 855.781 2027 861.291 1998.5 870.736 1970 878.358 1941.5 891.036Z" fill="#FF6718" fill-rule="evenodd" fill-opacity="0.4"/><path d="M1913.5 923.667 1942 891.536 1970.5 878.858 1999 871.236 2027.5 861.791 2056 856.281 2084.5 834.504 2113 807.059 2141.5 808.556 2170 805.881 2198.5 789.908 2227 786.125 2255.5 737.222 2284 709.503 2312.5 680.473 2341 673.5 2369.5 840.237 2398 814.327 2426.5 800.545 2455 805.024 2483.5 793.51 2512 954.5 2540.5 930.001 2569 918.35 2597.5 892.823 2626 898.282 2654.5 814.478 2683 803.656 2711.5 796.001 2740 789.789 2768.5 817.328 2797 813.773 2825.5 802.311 2854 790.859 2882.5 781.154 2911 772.789 2939.5 764.235 2968 757.318 2996.5 750.297 3025 743.177 3053.5 735.948" stroke="#BEBEBE" stroke-width="14.6706" stroke-linejoin="round" stroke-miterlimit="10" fill="none" fill-rule="evenodd"/><path d="M1913.5 923.667 1942 891.536 1970.5 878.858 1999 871.236 2027.5 861.791 2056 856.281 2084.5 834.504 2113 807.059 2141.5 808.556 2170 805.881 2198.5 789.908 2227 786.125 2255.5 737.222 2284 709.503 2312.5 680.473 2341 673.5 2369.5 840.237 2398 814.327 2426.5 800.545 2455 805.024 2483.5 793.51 2512 954.5 2540.5 930.001 2569 918.35 2597.5 892.823 2626 898.282 2654.5 826.738 2683 829.476 2711.5 835.309 2740 842.261 2768.5 867.892 2797 879.796 2825.5 880.488 2854 882.222 2882.5 884.574 2911 889.635 2939.5 892.967 2968 897.352 2996.5 901.88 3025 906.571 3053.5 911.425" stroke="#FF6718" stroke-width="14.6706" stroke-linejoin="round" stroke-miterlimit="10" fill="none" fill-rule="evenodd"/><path d="M3041.5 1026C3041.5 1019.65 3046.65 1014.5 3053 1014.5 3059.35 1014.5 3064.5 1019.65 3064.5 1026 3064.5 1032.35 3059.35 1037.5 3053 1037.5 3046.65 1037.5 3041.5 1032.35 3041.5 1026Z" stroke="#004678" stroke-width="3.24803" stroke-linecap="round" stroke-linejoin="round" stroke-miterlimit="10" fill="#004678" fill-rule="evenodd"/><path d="M3041.5 384C3041.5 377.649 3046.65 372.5 3053 372.5 3059.35 372.5 3064.5 377.649 3064.5 384 3064.5 390.351 3059.35 395.5 3053 395.5 3046.65 395.5 3041.5 390.351 3041.5 384Z" stroke="#BF9000" stroke-width="3.24803" stroke-linecap="round" stroke-linejoin="round" stroke-miterlimit="10" fill="#BF9000" fill-rule="evenodd"/><path d="M1913 1469.11 1941.5 1475.3 1970 1464.24 1998.5 1452.51 2027 1445.86 2055.5 1436.75 2084 1421.62 2112.5 1415.18 2141 1413.01 2169.5 1409.21 2198 1393.45 2226.5 1402.81 2255 1398.76 2283.5 1394.51 2312 1377 2340.5 1381.06 2369 1393.15 2397.5 1381.25 2426 1399.35 2454.5 1436.02 2483 1419.58 2511.5 1435.18 2540 1457.29 2568.5 1439.24 2597 1434.8 2625.5 1446.33 2654 1451.91 2682.5 1443.9 2711 1441.09 2739.5 1438.17 2768 1462.13 2796.5 1442.69 2825 1431.44 2853.5 1426.74 2882 1425.84 2910.5 1423.78 2939 1421.63 2967.5 1419.47 2996 1417.31 3024.5 1415.13 3053 1412.95 3053 2046 3024.5 2013.21 2996 1980.32 2967.5 1947.35 2939 1914.33 2910.5 1878.18 2882 1834.6 2853.5 1794.25 2825 1756.94 2796.5 1725.11 2768 1678.27 2739.5 1659.66 2711 1611.83 2682.5 1559.15 2654 1508.75 2625.5 1446.33 2597 1434.8 2568.5 1439.24 2540 1457.29 2511.5 1435.18 2483 1419.58 2454.5 1436.02 2426 1399.35 2397.5 1381.25 2369 1393.15 2340.5 1381.06 2312 1377 2283.5 1394.51 2255 1398.76 2226.5 1402.81 2198 1393.45 2169.5 1409.21 2141 1413.01 2112.5 1415.18 2084 1421.62 2055.5 1436.75 2027 1445.86 1998.5 1452.51 1970 1464.24 1941.5 1475.3Z" fill="#FF6718" fill-rule="evenodd" fill-opacity="0.4"/><path d="M1913.5 1469.32 1942 1475.5 1970.5 1464.47 1999 1452.77 2027.5 1446.15 2056 1437.06 2084.5 1421.99 2113 1415.56 2141.5 1413.4 2170 1409.61 2198.5 1393.9 2227 1403.23 2255.5 1399.19 2284 1394.96 2312.5 1377.5 2341 1381.55 2369.5 1393.6 2398 1381.74 2426.5 1399.78 2455 1436.34 2483.5 1419.95 2512 1435.5 2540.5 1457.54 2569 1439.55 2597.5 1435.12 2626 1446.62 2654.5 1452.18 2683 1444.19 2711.5 1441.39 2740 1438.48 2768.5 1462.37 2797 1442.99 2825.5 1431.77 2854 1427.09 2882.5 1426.19 2911 1424.14 2939.5 1422 2968 1419.84 2996.5 1417.68 3025 1415.51 3053.5 1413.34" stroke="#BEBEBE" stroke-width="14.6706" stroke-linejoin="round" stroke-miterlimit="10" fill="none" fill-rule="evenodd"/><path d="M1913.5 1469.61 1942 1475.8 1970.5 1464.74 1999 1453.01 2027.5 1446.36 2056 1437.25 2084.5 1422.12 2113 1415.68 2141.5 1413.51 2170 1409.71 2198.5 1393.95 2227 1403.31 2255.5 1399.26 2284 1395.01 2312.5 1377.5 2341 1381.56 2369.5 1393.65 2398 1381.75 2426.5 1399.85 2455 1436.52 2483.5 1420.08 2512 1435.68 2540.5 1457.79 2569 1439.74 2597.5 1435.3 2626 1446.83 2654.5 1509.25 2683 1559.65 2711.5 1612.33 2740 1660.16 2768.5 1678.77 2797 1725.61 2825.5 1757.44 2854 1794.75 2882.5 1835.1 2911 1878.68 2939.5 1914.83 2968 1947.85 2996.5 1980.82 3025 2013.71 3053.5 2046.5" stroke="#FF6718" stroke-width="14.6706" stroke-linejoin="round" stroke-miterlimit="10" fill="none" fill-rule="evenodd"/><path d="M3041.5 1667.5C3041.5 1660.87 3046.65 1655.5 3053 1655.5 3059.35 1655.5 3064.5 1660.87 3064.5 1667.5 3064.5 1674.13 3059.35 1679.5 3053 1679.5 3046.65 1679.5 3041.5 1674.13 3041.5 1667.5Z" stroke="#004678" stroke-width="3.24803" stroke-linecap="round" stroke-linejoin="round" stroke-miterlimit="10" fill="#004678" fill-rule="evenodd"/><path d="M3041.5 1682C3041.5 1673.99 3046.65 1667.5 3053 1667.5 3059.35 1667.5 3064.5 1673.99 3064.5 1682 3064.5 1690.01 3059.35 1696.5 3053 1696.5 3046.65 1696.5 3041.5 1690.01 3041.5 1682Z" stroke="#AFDAFF" stroke-width="3.24803" stroke-linecap="round" stroke-linejoin="round" stroke-miterlimit="10" fill="#AFDAFF" fill-rule="evenodd"/><path d="M3041.5 1679C3041.5 1672.65 3046.65 1667.5 3053 1667.5 3059.35 1667.5 3064.5 1672.65 3064.5 1679 3064.5 1685.35 3059.35 1690.5 3053 1690.5 3046.65 1690.5 3041.5 1685.35 3041.5 1679Z" stroke="#BF9000" stroke-width="3.24803" stroke-linecap="round" stroke-linejoin="round" stroke-miterlimit="10" fill="#BF9000" fill-rule="evenodd"/><path d="M3041.5 1690C3041.5 1683.65 3046.65 1678.5 3053 1678.5 3059.35 1678.5 3064.5 1683.65 3064.5 1690 3064.5 1696.35 3059.35 1701.5 3053 1701.5 3046.65 1701.5 3041.5 1696.35 3041.5 1690Z" stroke="#FFC000" stroke-width="3.24803" stroke-linecap="round" stroke-linejoin="round" stroke-miterlimit="10" fill="#FFC000" fill-rule="evenodd"/><text fill="#1A1A1A" font-family="Arial,Arial_MSFontService,sans-serif" font-weight="700" font-size="59" transform="matrix(1 0 0 1 990.255 1298)">THA</text><text fill="#1A1A1A" font-family="Arial,Arial_MSFontService,sans-serif" font-weight="700" font-size="59" transform="matrix(1 0 0 1 2421.02 1298)">USA</text><text fill="#1A1A1A" font-family="Arial,Arial_MSFontService,sans-serif" font-weight="700" font-size="59" transform="matrix(1 0 0 1 1000.28 308)">IDN</text><text fill="#1A1A1A" font-family="Arial,Arial_MSFontService,sans-serif" font-weight="700" font-size="59" transform="matrix(1 0 0 1 2419.59 307)">MYS</text><path d="M424.5 2079.5 1678.5 2079.5" stroke="#000000" stroke-width="7.33514" stroke-linejoin="round" stroke-miterlimit="10" fill="none" fill-rule="evenodd"/><path d="M481.5 2095.5 481.5 2079.5" stroke="#333333" stroke-width="7.33514" stroke-linejoin="round" stroke-miterlimit="10" fill="none" fill-rule="evenodd"/><path d="M766.5 2095.5 766.5 2079.5" stroke="#333333" stroke-width="7.33514" stroke-linejoin="round" stroke-miterlimit="10" fill="none" fill-rule="evenodd"/><path d="M1051.5 2095.5 1051.5 2079.5" stroke="#333333" stroke-width="7.33514" stroke-linejoin="round" stroke-miterlimit="10" fill="none" fill-rule="evenodd"/><path d="M1336.5 2095.5 1336.5 2079.5" stroke="#333333" stroke-width="7.33514" stroke-linejoin="round" stroke-miterlimit="10" fill="none" fill-rule="evenodd"/><path d="M1621.5 2095.5 1621.5 2079.5" stroke="#333333" stroke-width="7.33514" stroke-linejoin="round" stroke-miterlimit="10" fill="none" fill-rule="evenodd"/><text fill="#4D4D4D" font-family="Arial,Arial_MSFontService,sans-serif" font-weight="400" font-size="59" transform="matrix(1 0 0 1 415.397 2179)">1990</text><text fill="#4D4D4D" font-family="Arial,Arial_MSFontService,sans-serif" font-weight="400" font-size="59" transform="matrix(1 0 0 1 700.391 2179)">2000</text><text fill="#4D4D4D" font-family="Arial,Arial_MSFontService,sans-serif" font-weight="400" font-size="59" transform="matrix(1 0 0 1 985.385 2179)">2010</text><text fill="#4D4D4D" font-family="Arial,Arial_MSFontService,sans-serif" font-weight="400" font-size="59" transform="matrix(1 0 0 1 1270.38 2179)">2020</text><text fill="#4D4D4D" font-family="Arial,Arial_MSFontService,sans-serif" font-weight="400" font-size="59" transform="matrix(1 0 0 1 1555.37 2179)">2030</text><path d="M1856.5 2079.5 3110.5 2079.5" stroke="#000000" stroke-width="7.33514" stroke-linejoin="round" stroke-miterlimit="10" fill="none" fill-rule="evenodd"/><path d="M1913.5 2095.5 1913.5 2079.5" stroke="#333333" stroke-width="7.33514" stroke-linejoin="round" stroke-miterlimit="10" fill="none" fill-rule="evenodd"/><path d="M2198.5 2095.5 2198.5 2079.5" stroke="#333333" stroke-width="7.33514" stroke-linejoin="round" stroke-miterlimit="10" fill="none" fill-rule="evenodd"/><path d="M2483.5 2095.5 2483.5 2079.5" stroke="#333333" stroke-width="7.33514" stroke-linejoin="round" stroke-miterlimit="10" fill="none" fill-rule="evenodd"/><path d="M2768.5 2095.5 2768.5 2079.5" stroke="#333333" stroke-width="7.33514" stroke-linejoin="round" stroke-miterlimit="10" fill="none" fill-rule="evenodd"/><path d="M3053.5 2095.5 3053.5 2079.5" stroke="#333333" stroke-width="7.33514" stroke-linejoin="round" stroke-miterlimit="10" fill="none" fill-rule="evenodd"/><text fill="#4D4D4D" font-family="Arial,Arial_MSFontService,sans-serif" font-weight="400" font-size="59" transform="matrix(1 0 0 1 1847.6 2179)">1990</text><text fill="#4D4D4D" font-family="Arial,Arial_MSFontService,sans-serif" font-weight="400" font-size="59" transform="matrix(1 0 0 1 2132.59 2179)">2000</text><text fill="#4D4D4D" font-family="Arial,Arial_MSFontService,sans-serif" font-weight="400" font-size="59" transform="matrix(1 0 0 1 2417.59 2179)">2010</text><text fill="#4D4D4D" font-family="Arial,Arial_MSFontService,sans-serif" font-weight="400" font-size="59" transform="matrix(1 0 0 1 2702.58 2179)">2020</text><text fill="#4D4D4D" font-family="Arial,Arial_MSFontService,sans-serif" font-weight="400" font-size="59" transform="matrix(1 0 0 1 2987.57 2179)">2030</text><path d="M424.5 1089.5 1678.5 1089.5" stroke="#000000" stroke-width="7.33514" stroke-linejoin="round" stroke-miterlimit="10" fill="none" fill-rule="evenodd"/><path d="M481.5 1105.5 481.5 1089.5" stroke="#333333" stroke-width="7.33514" stroke-linejoin="round" stroke-miterlimit="10" fill="none" fill-rule="evenodd"/><path d="M766.5 1105.5 766.5 1089.5" stroke="#333333" stroke-width="7.33514" stroke-linejoin="round" stroke-miterlimit="10" fill="none" fill-rule="evenodd"/><path d="M1051.5 1105.5 1051.5 1089.5" stroke="#333333" stroke-width="7.33514" stroke-linejoin="round" stroke-miterlimit="10" fill="none" fill-rule="evenodd"/><path d="M1336.5 1105.5 1336.5 1089.5" stroke="#333333" stroke-width="7.33514" stroke-linejoin="round" stroke-miterlimit="10" fill="none" fill-rule="evenodd"/><path d="M1621.5 1105.5 1621.5 1089.5" stroke="#333333" stroke-width="7.33514" stroke-linejoin="round" stroke-miterlimit="10" fill="none" fill-rule="evenodd"/><text fill="#4D4D4D" font-family="Arial,Arial_MSFontService,sans-serif" font-weight="400" font-size="59" transform="matrix(1 0 0 1 415.397 1189)">1990</text><text fill="#4D4D4D" font-family="Arial,Arial_MSFontService,sans-serif" font-weight="400" font-size="59" transform="matrix(1 0 0 1 700.391 1189)">2000</text><text fill="#4D4D4D" font-family="Arial,Arial_MSFontService,sans-serif" font-weight="400" font-size="59" transform="matrix(1 0 0 1 985.385 1189)">2010</text><text fill="#4D4D4D" font-family="Arial,Arial_MSFontService,sans-serif" font-weight="400" font-size="59" transform="matrix(1 0 0 1 1270.38 1189)">2020</text><text fill="#4D4D4D" font-family="Arial,Arial_MSFontService,sans-serif" font-weight="400" font-size="59" transform="matrix(1 0 0 1 1555.37 1189)">2030</text><path d="M1856.5 1089.5 3110.5 1089.5" stroke="#000000" stroke-width="7.33514" stroke-linejoin="round" stroke-miterlimit="10" fill="none" fill-rule="evenodd"/><path d="M1913.5 1105.5 1913.5 1089.5" stroke="#333333" stroke-width="7.33514" stroke-linejoin="round" stroke-miterlimit="10" fill="none" fill-rule="evenodd"/><path d="M2198.5 1105.5 2198.5 1089.5" stroke="#333333" stroke-width="7.33514" stroke-linejoin="round" stroke-miterlimit="10" fill="none" fill-rule="evenodd"/><path d="M2483.5 1105.5 2483.5 1089.5" stroke="#333333" stroke-width="7.33514" stroke-linejoin="round" stroke-miterlimit="10" fill="none" fill-rule="evenodd"/><path d="M2768.5 1105.5 2768.5 1089.5" stroke="#333333" stroke-width="7.33514" stroke-linejoin="round" stroke-miterlimit="10" fill="none" fill-rule="evenodd"/><path d="M3053.5 1105.5 3053.5 1089.5" stroke="#333333" stroke-width="7.33514" stroke-linejoin="round" stroke-miterlimit="10" fill="none" fill-rule="evenodd"/><text fill="#4D4D4D" font-family="Arial,Arial_MSFontService,sans-serif" font-weight="400" font-size="59" transform="matrix(1 0 0 1 1847.6 1189)">1990</text><text fill="#4D4D4D" font-family="Arial,Arial_MSFontService,sans-serif" font-weight="400" font-size="59" transform="matrix(1 0 0 1 2132.59 1189)">2000</text><text fill="#4D4D4D" font-family="Arial,Arial_MSFontService,sans-serif" font-weight="400" font-size="59" transform="matrix(1 0 0 1 2417.59 1189)">2010</text><text fill="#4D4D4D" font-family="Arial,Arial_MSFontService,sans-serif" font-weight="400" font-size="59" transform="matrix(1 0 0 1 2702.58 1189)">2020</text><text fill="#4D4D4D" font-family="Arial,Arial_MSFontService,sans-serif" font-weight="400" font-size="59" transform="matrix(1 0 0 1 2987.57 1189)">2030</text><text fill="#4D4D4D" font-family="Arial,Arial_MSFontService,sans-serif" font-weight="400" font-size="59" transform="matrix(1 0 0 1 1735.38 896)">200</text><text fill="#4D4D4D" font-family="Arial,Arial_MSFontService,sans-serif" font-weight="400" font-size="59" transform="matrix(1 0 0 1 1735.38 639)">400</text><text fill="#4D4D4D" font-family="Arial,Arial_MSFontService,sans-serif" font-weight="400" font-size="59" transform="matrix(1 0 0 1 1735.38 381)">600</text><text fill="#4D4D4D" font-family="Arial,Arial_MSFontService,sans-serif" font-weight="400" font-size="59" transform="matrix(1 0 0 1 1800.67 1966)">0</text><text fill="#4D4D4D" font-family="Arial,Arial_MSFontService,sans-serif" font-weight="400" font-size="59" transform="matrix(1 0 0 1 1702.74 1755)">2500</text><text fill="#4D4D4D" font-family="Arial,Arial_MSFontService,sans-serif" font-weight="400" font-size="59" transform="matrix(1 0 0 1 1702.74 1544)">5000</text><text fill="#4D4D4D" font-family="Arial,Arial_MSFontService,sans-serif" font-weight="400" font-size="59" transform="matrix(1 0 0 1 303.182 1018)">500</text><text fill="#4D4D4D" font-family="Arial,Arial_MSFontService,sans-serif" font-weight="400" font-size="59" transform="matrix(1 0 0 1 270.54 870)">1000</text><text fill="#4D4D4D" font-family="Arial,Arial_MSFontService,sans-serif" font-weight="400" font-size="59" transform="matrix(1 0 0 1 270.54 723)">1500</text><text fill="#4D4D4D" font-family="Arial,Arial_MSFontService,sans-serif" font-weight="400" font-size="59" transform="matrix(1 0 0 1 270.54 575)">2000</text><text fill="#4D4D4D" font-family="Arial,Arial_MSFontService,sans-serif" font-weight="400" font-size="59" transform="matrix(1 0 0 1 270.54 427)">2500</text><text fill="#4D4D4D" font-family="Arial,Arial_MSFontService,sans-serif" font-weight="400" font-size="59" transform="matrix(1 0 0 1 303.182 2027)">200</text><text fill="#4D4D4D" font-family="Arial,Arial_MSFontService,sans-serif" font-weight="400" font-size="59" transform="matrix(1 0 0 1 303.182 1890)">300</text><text fill="#4D4D4D" font-family="Arial,Arial_MSFontService,sans-serif" font-weight="400" font-size="59" transform="matrix(1 0 0 1 303.182 1754)">400</text><text fill="#4D4D4D" font-family="Arial,Arial_MSFontService,sans-serif" font-weight="400" font-size="59" transform="matrix(1 0 0 1 303.182 1617)">500</text><text fill="#4D4D4D" font-family="Arial,Arial_MSFontService,sans-serif" font-weight="400" font-size="59" transform="matrix(1 0 0 1 303.182 1481)">600</text><text font-family="Arial,Arial_MSFontService,sans-serif" font-weight="400" font-size="55" transform="matrix(1 0 0 1 272.094 326)">MtCO2e</text></g></svg>