<svg width="2991" height="2123" xmlns="http://www.w3.org/2000/svg" xmlns:xlink="http://www.w3.org/1999/xlink" xml:space="preserve" overflow="hidden"><defs><clipPath id="clip0"><rect x="163" y="222" width="2991" height="2123"/></clipPath></defs><g clip-path="url(#clip0)" transform="translate(-163 -222)"><rect x="165.5" y="224.5" width="2970" height="2118" stroke="#FFFFFF" stroke-width="3.4375" stroke-linecap="round" stroke-linejoin="round" stroke-miterlimit="10" fill="#FFFFFF"/><rect x="165.5" y="224.5" width="2970" height="2118" stroke="#FFFFFF" stroke-width="4.89009" stroke-linecap="round" stroke-linejoin="round" stroke-miterlimit="10" fill="#FFFFFF"/><path d="M481 977 509.5 969.633 538 962.067 566.5 956.699 595 950.982 623.5 941.008 652 929.241 680.5 919.578 709 910.55 737.5 902.024 766 899.838 794.5 888.663 823 887.398 851.5 876.07 880 872.867 908.5 872.622 937 869.603 965.5 862.521 994 866.51 1022.5 858.251 1051 840.383 1079.5 819.951 1108 803.917 1136.5 818.827 1165 802.628 1193.5 797.365 1222 791.857 1250.5 786.171 1279 780.168 1307.5 774.358 1336 783.02 1364.5 779.267 1393 772.041 1421.5 763.402 1450 754.986 1478.5 747.095 1507 739.3 1535.5 731.525 1564 723.552 1592.5 715.38 1621 707 1621 751.976 1592.5 756.018 1564 760.133 1535.5 764.312 1507 768.543 1478.5 772.849 1450 777.089 1421.5 782.315 1393 787.261 1364.5 791.48 1336 792.007 1307.5 783.232 1279 786.612 1250.5 790.158 1222 793.657 1193.5 797.365 1165 802.628 1136.5 818.827 1108 803.917 1079.5 819.951 1051 840.383 1022.5 858.251 994 866.51 965.5 862.521 937 869.603 908.5 872.622 880 872.867 851.5 876.07 823 887.398 794.5 888.663 766 899.838 737.5 902.024 709 910.55 680.5 919.578 652 929.241 623.5 941.008 595 950.982 566.5 956.699 538 962.067 509.5 969.633Z" fill="#FF6718" fill-rule="evenodd" fill-opacity="0.4"/><path d="M481.5 977.5 510 970.133 538.5 962.567 567 957.199 595.5 951.482 624 941.508 652.5 929.741 681 920.078 709.5 911.05 738 902.524 766.5 900.338 795 889.164 823.5 887.898 852 876.57 880.5 873.367 909 873.122 937.5 870.103 966 863.021 994.5 867.01 1023 858.751 1051.5 840.883 1080 820.451 1108.5 804.417 1137 819.327 1165.5 803.128 1194 797.865 1222.5 792.357 1251 786.671 1279.5 780.668 1308 774.858 1336.5 783.52 1365 779.767 1393.5 772.54 1422 763.902 1450.5 755.486 1479 747.595 1507.5 739.8 1536 732.025 1564.5 724.052 1593 715.879 1621.5 707.5" stroke="#BEBEBE" stroke-width="14.6706" stroke-linejoin="round" stroke-miterlimit="10" fill="none" fill-rule="evenodd"/><path d="M481.5 977.5 510 970.134 538.5 962.569 567 957.201 595.5 951.485 624 941.512 652.5 929.746 681 920.084 709.5 911.057 738 902.532 766.5 900.347 795 889.173 823.5 887.908 852 876.58 880.5 873.378 909 873.133 937.5 870.114 966 863.034 994.5 867.022 1023 858.763 1051.5 840.898 1080 820.468 1108.5 804.436 1137 819.344 1165.5 803.146 1194 797.885 1222.5 794.177 1251 790.678 1279.5 787.132 1308 783.753 1336.5 792.527 1365 792 1393.5 787.781 1422 782.835 1450.5 777.611 1479 773.37 1507.5 769.065 1536 764.835 1564.5 760.656 1593 756.542 1621.5 752.5" stroke="#FF6718" stroke-width="14.6706" stroke-linejoin="round" stroke-miterlimit="10" fill="none" fill-rule="evenodd"/><path d="M1609.5 410C1609.5 403.649 1614.65 398.5 1621 398.5 1627.35 398.5 1632.5 403.649 1632.5 410 1632.5 416.351 1627.35 421.5 1621 421.5 1614.65 421.5 1609.5 416.351 1609.5 410Z" stroke="#004678" stroke-width="3.24803" stroke-linecap="round" stroke-linejoin="round" stroke-miterlimit="10" fill="#004678" fill-rule="evenodd"/><path d="M1609.5 522C1609.5 515.649 1614.65 510.5 1621 510.5 1627.35 510.5 1632.5 515.649 1632.5 522 1632.5 528.351 1627.35 533.5 1621 533.5 1614.65 533.5 1609.5 528.351 1609.5 522Z" stroke="#AFDAFF" stroke-width="3.24803" stroke-linecap="round" stroke-linejoin="round" stroke-miterlimit="10" fill="#AFDAFF" fill-rule="evenodd"/><path d="M1609.5 825.5C1609.5 818.873 1614.65 813.5 1621 813.5 1627.35 813.5 1632.5 818.873 1632.5 825.5 1632.5 832.127 1627.35 837.5 1621 837.5 1614.65 837.5 1609.5 832.127 1609.5 825.5Z" stroke="#BF9000" stroke-width="3.24803" stroke-linecap="round" stroke-linejoin="round" stroke-miterlimit="10" fill="#BF9000" fill-rule="evenodd"/><path d="M1609.5 868.5C1609.5 861.873 1614.65 856.5 1621 856.5 1627.35 856.5 1632.5 861.873 1632.5 868.5 1632.5 875.127 1627.35 880.5 1621 880.5 1614.65 880.5 1609.5 875.127 1609.5 868.5Z" stroke="#FFC000" stroke-width="3.24803" stroke-linecap="round" stroke-linejoin="round" stroke-miterlimit="10" fill="#FFC000" fill-rule="evenodd"/><path d="M481 1799 509.5 1778.37 538 1762.2 566.5 1739.13 595 1719.21 623.5 1688.93 652 1661.73 680.5 1649.99 709 1683.81 737.5 1668.44 766 1662.73 794.5 1641.95 823 1626.13 851.5 1600.1 880 1574.58 908.5 1561.79 937 1553.53 965.5 1535.26 994 1537.95 1022.5 1508.11 1051 1476.39 1079.5 1479.88 1108 1449.96 1136.5 1425.93 1165 1441.84 1193.5 1447.11 1222 1441.87 1250.5 1433.34 1279 1424.63 1307.5 1424.42 1336 1461.32 1364.5 1462.32 1393 1456.1 1421.5 1445.89 1450 1437.48 1478.5 1430.95 1507 1424.87 1535.5 1419.47 1564 1414.02 1592.5 1408.53 1621 1403 1621 1558.26 1592.5 1552.47 1564 1546.97 1535.5 1541.75 1507 1536.79 1478.5 1532.1 1450 1526.6 1421.5 1524.21 1393 1522.45 1364.5 1518.27 1336 1503.82 1307.5 1467.58 1279 1457.83 1250.5 1454.74 1222 1451.93 1193.5 1447.11 1165 1441.84 1136.5 1425.93 1108 1449.96 1079.5 1479.88 1051 1476.39 1022.5 1508.11 994 1537.95 965.5 1535.26 937 1553.53 908.5 1561.79 880 1574.58 851.5 1600.1 823 1626.13 794.5 1641.95 766 1662.73 737.5 1668.44 709 1683.81 680.5 1649.99 652 1661.73 623.5 1688.93 595 1719.21 566.5 1739.13 538 1762.2 509.5 1778.37Z" fill="#FF6718" fill-rule="evenodd" fill-opacity="0.4"/><path d="M481.5 1799.5 510 1778.87 538.5 1762.7 567 1739.63 595.5 1719.71 624 1689.43 652.5 1662.23 681 1650.49 709.5 1684.31 738 1668.94 766.5 1663.23 795 1642.45 823.5 1626.64 852 1600.6 880.5 1575.08 909 1562.29 937.5 1554.03 966 1535.76 994.5 1538.45 1023 1508.61 1051.5 1476.89 1080 1480.38 1108.5 1450.46 1137 1426.43 1165.5 1442.34 1194 1447.61 1222.5 1442.37 1251 1433.84 1279.5 1425.13 1308 1424.92 1336.5 1461.82 1365 1462.82 1393.5 1456.6 1422 1446.39 1450.5 1437.98 1479 1431.45 1507.5 1425.37 1536 1419.97 1564.5 1414.52 1593 1409.03 1621.5 1403.5" stroke="#BEBEBE" stroke-width="14.6706" stroke-linejoin="round" stroke-miterlimit="10" fill="none" fill-rule="evenodd"/><path d="M481.5 1799.5 510 1778.87 538.5 1762.71 567 1739.64 595.5 1719.72 624 1689.45 652.5 1662.25 681 1650.52 709.5 1684.33 738 1668.96 766.5 1663.26 795 1642.48 823.5 1626.67 852 1600.63 880.5 1575.12 909 1562.33 937.5 1554.07 966 1535.81 994.5 1538.49 1023 1508.66 1051.5 1476.94 1080 1480.43 1108.5 1450.52 1137 1426.5 1165.5 1442.4 1194 1447.67 1222.5 1452.5 1251 1455.3 1279.5 1458.39 1308 1468.13 1336.5 1504.37 1365 1518.82 1393.5 1523 1422 1524.76 1450.5 1527.15 1479 1532.65 1507.5 1537.33 1536 1542.3 1564.5 1547.52 1593 1553.02 1621.5 1558.8" stroke="#FF6718" stroke-width="14.6706" stroke-linejoin="round" stroke-miterlimit="10" fill="none" fill-rule="evenodd"/><path d="M1609.5 1494C1609.5 1487.65 1614.65 1482.5 1621 1482.5 1627.35 1482.5 1632.5 1487.65 1632.5 1494 1632.5 1500.35 1627.35 1505.5 1621 1505.5 1614.65 1505.5 1609.5 1500.35 1609.5 1494Z" stroke="#004678" stroke-width="3.24803" stroke-linecap="round" stroke-linejoin="round" stroke-miterlimit="10" fill="#004678" fill-rule="evenodd"/><path d="M1609.5 1577.5C1609.5 1570.87 1614.65 1565.5 1621 1565.5 1627.35 1565.5 1632.5 1570.87 1632.5 1577.5 1632.5 1584.13 1627.35 1589.5 1621 1589.5 1614.65 1589.5 1609.5 1584.13 1609.5 1577.5Z" stroke="#AFDAFF" stroke-width="3.24803" stroke-linecap="round" stroke-linejoin="round" stroke-miterlimit="10" fill="#AFDAFF" fill-rule="evenodd"/><path d="M1609.5 1604C1609.5 1597.65 1614.65 1592.5 1621 1592.5 1627.35 1592.5 1632.5 1597.65 1632.5 1604 1632.5 1610.35 1627.35 1615.5 1621 1615.5 1614.65 1615.5 1609.5 1610.35 1609.5 1604Z" stroke="#BF9000" stroke-width="3.24803" stroke-linecap="round" stroke-linejoin="round" stroke-miterlimit="10" fill="#BF9000" fill-rule="evenodd"/><path d="M1609.5 1672C1609.5 1665.65 1614.65 1660.5 1621 1660.5 1627.35 1660.5 1632.5 1665.65 1632.5 1672 1632.5 1678.35 1627.35 1683.5 1621 1683.5 1614.65 1683.5 1609.5 1678.35 1609.5 1672Z" stroke="#FFC000" stroke-width="3.24803" stroke-linecap="round" stroke-linejoin="round" stroke-miterlimit="10" fill="#FFC000" fill-rule="evenodd"/><path d="M1913 932 1941.5 913.918 1970 903.187 1998.5 897.749 2027 884.392 2055.5 877.035 2084 847.298 2112.5 811.652 2141 829.855 2169.5 803.233 2198 779.743 2226.5 768.01 2255 750.434 2283.5 723.328 2312 696.193 2340.5 667.548 2369 668.442 2397.5 637.546 2426 617.176 2454.5 638.693 2483 615.287 2511.5 615.927 2540 583.051 2568.5 569.84 2597 557.05 2625.5 549.192 2654 541.117 2682.5 527.32 2711 517.56 2739.5 509.642 2768 544.75 2796.5 540.217 2825 525.605 2853.5 511.005 2882 498.633 2910.5 487.968 2939 477.062 2967.5 468.244 2996 459.294 3024.5 450.216 3053 441 3053 650.145 3024.5 644.301 2996 638.717 2967.5 633.393 2939 628.304 2910.5 624.696 2882 619.16 2853.5 616.998 2825 615.479 2796.5 615.412 2768 601.636 2739.5 566.787 2711 561.147 2682.5 555.583 2654 554.362 2625.5 549.192 2597 557.05 2568.5 569.84 2540 583.051 2511.5 615.927 2483 615.287 2454.5 638.693 2426 617.176 2397.5 637.546 2369 668.442 2340.5 667.548 2312 696.193 2283.5 723.328 2255 750.434 2226.5 768.01 2198 779.743 2169.5 803.233 2141 829.855 2112.5 811.652 2084 847.298 2055.5 877.035 2027 884.392 1998.5 897.749 1970 903.187 1941.5 913.918Z" fill="#FF6718" fill-rule="evenodd" fill-opacity="0.4"/><path d="M1913.5 932.5 1942 914.418 1970.5 903.687 1999 898.249 2027.5 884.892 2056 877.535 2084.5 847.798 2113 812.152 2141.5 830.355 2170 803.733 2198.5 780.243 2227 768.51 2255.5 750.934 2284 723.828 2312.5 696.693 2341 668.048 2369.5 668.942 2398 638.046 2426.5 617.676 2455 639.193 2483.5 615.787 2512 616.427 2540.5 583.551 2569 570.34 2597.5 557.55 2626 549.692 2654.5 541.617 2683 527.82 2711.5 518.06 2740 510.141 2768.5 545.25 2797 540.717 2825.5 526.105 2854 511.505 2882.5 499.133 2911 488.468 2939.5 477.562 2968 468.744 2996.5 459.793 3025 450.716 3053.5 441.5" stroke="#BEBEBE" stroke-width="14.6706" stroke-linejoin="round" stroke-miterlimit="10" fill="none" fill-rule="evenodd"/><path d="M1913.5 932.5 1942 914.408 1970.5 903.672 1999 898.231 2027.5 884.868 2056 877.507 2084.5 847.755 2113 812.091 2141.5 830.304 2170 803.668 2198.5 780.166 2227 768.427 2255.5 750.843 2284 723.724 2312.5 696.575 2341 667.915 2369.5 668.809 2398 637.898 2426.5 617.518 2455 639.045 2483.5 615.628 2512 616.268 2540.5 583.376 2569 570.158 2597.5 557.362 2626 549.5 2654.5 554.672 2683 555.894 2711.5 561.46 2740 567.104 2768.5 601.969 2797 615.753 2825.5 615.82 2854 617.34 2882.5 619.503 2911 625.042 2939.5 628.652 2968 633.743 2996.5 639.07 3025 644.657 3053.5 650.504" stroke="#FF6718" stroke-width="14.6706" stroke-linejoin="round" stroke-miterlimit="10" fill="none" fill-rule="evenodd"/><path d="M3041.5 418.5C3041.5 410.216 3046.65 403.5 3053 403.5 3059.35 403.5 3064.5 410.216 3064.5 418.5 3064.5 426.784 3059.35 433.5 3053 433.5 3046.65 433.5 3041.5 426.784 3041.5 418.5Z" stroke="#004678" stroke-width="3.24803" stroke-linecap="round" stroke-linejoin="round" stroke-miterlimit="10" fill="#004678" fill-rule="evenodd"/><path d="M3041.5 413C3041.5 404.992 3046.65 398.5 3053 398.5 3059.35 398.5 3064.5 404.992 3064.5 413 3064.5 421.008 3059.35 427.5 3053 427.5 3046.65 427.5 3041.5 421.008 3041.5 413Z" stroke="#BF9000" stroke-width="3.24803" stroke-linecap="round" stroke-linejoin="round" stroke-miterlimit="10" fill="#BF9000" fill-rule="evenodd"/><path d="M1913 1479.77 1941.5 1485.83 1970 1476.34 1998.5 1466.66 2027 1458.94 2055.5 1452.58 2084 1436.77 2112.5 1432 2141 1429.32 2169.5 1426.05 2198 1411.13 2226.5 1420.33 2255 1418.39 2283.5 1412.97 2312 1404.3 2340.5 1404.17 2369 1411.26 2397.5 1403 2426 1421.7 2454.5 1459.25 2483 1441.64 2511.5 1455.11 2540 1474.91 2568.5 1460.03 2597 1454.56 2625.5 1467.48 2654 1467.62 2682.5 1465.13 2711 1459.81 2739.5 1458.01 2768 1481.06 2796.5 1462.52 2825 1451.78 2853.5 1447.3 2882 1446.44 2910.5 1444.48 2939 1442.43 2967.5 1440.37 2996 1438.3 3024.5 1436.23 3053 1434.15 3053 2072 3024.5 2038.43 2996 2004.82 2967.5 1971.16 2939 1937.49 2910.5 1900.7 2882 1856.56 2853.5 1815.67 2825 1777.65 2796.5 1745.1 2768 1696.06 2739.5 1672.79 2711 1630.19 2682.5 1579.99 2654 1524.25 2625.5 1467.48 2597 1454.56 2568.5 1460.03 2540 1474.91 2511.5 1455.11 2483 1441.64 2454.5 1459.25 2426 1421.7 2397.5 1403 2369 1411.26 2340.5 1404.17 2312 1404.3 2283.5 1412.97 2255 1418.39 2226.5 1420.33 2198 1411.13 2169.5 1426.05 2141 1429.32 2112.5 1432 2084 1436.77 2055.5 1452.58 2027 1458.94 1998.5 1466.66 1970 1476.34 1941.5 1485.83Z" fill="#FF6718" fill-rule="evenodd" fill-opacity="0.4"/><path d="M1913.5 1480.43 1942 1486.5 1970.5 1476.99 1999 1467.29 2027.5 1459.55 2056 1453.18 2084.5 1437.34 2113 1432.56 2141.5 1429.87 2170 1426.6 2198.5 1411.65 2227 1420.87 2255.5 1418.92 2284 1413.49 2312.5 1404.8 2341 1404.68 2369.5 1411.78 2398 1403.5 2426.5 1422.24 2455 1459.87 2483.5 1442.22 2512 1455.71 2540.5 1475.56 2569 1460.65 2597.5 1455.17 2626 1468.11 2654.5 1468.25 2683 1465.76 2711.5 1460.42 2740 1458.62 2768.5 1481.71 2797 1463.14 2825.5 1452.38 2854 1447.89 2882.5 1447.03 2911 1445.07 2939.5 1443.01 2968 1440.95 2996.5 1438.87 3025 1436.8 3053.5 1434.71" stroke="#BEBEBE" stroke-width="14.6706" stroke-linejoin="round" stroke-miterlimit="10" fill="none" fill-rule="evenodd"/><path d="M1913.5 1480.27 1942 1486.33 1970.5 1476.84 1999 1467.16 2027.5 1459.44 2056 1453.08 2084.5 1437.27 2113 1432.5 2141.5 1429.82 2170 1426.55 2198.5 1411.63 2227 1420.83 2255.5 1418.89 2284 1413.47 2312.5 1404.8 2341 1404.67 2369.5 1411.76 2398 1403.5 2426.5 1422.2 2455 1459.75 2483.5 1442.14 2512 1455.61 2540.5 1475.41 2569 1460.53 2597.5 1455.06 2626 1467.98 2654.5 1524.75 2683 1580.49 2711.5 1630.69 2740 1673.29 2768.5 1696.56 2797 1745.6 2825.5 1778.15 2854 1816.17 2882.5 1857.06 2911 1901.2 2939.5 1937.99 2968 1971.66 2996.5 2005.32 3025 2038.93 3053.5 2072.5" stroke="#FF6718" stroke-width="14.6706" stroke-linejoin="round" stroke-miterlimit="10" fill="none" fill-rule="evenodd"/><path d="M3041.5 1745.5C3041.5 1737.22 3046.65 1730.5 3053 1730.5 3059.35 1730.5 3064.5 1737.22 3064.5 1745.5 3064.5 1753.78 3059.35 1760.5 3053 1760.5 3046.65 1760.5 3041.5 1753.78 3041.5 1745.5Z" stroke="#004678" stroke-width="3.24803" stroke-linecap="round" stroke-linejoin="round" stroke-miterlimit="10" fill="#004678" fill-rule="evenodd"/><path d="M3041.5 1756C3041.5 1747.99 3046.65 1741.5 3053 1741.5 3059.35 1741.5 3064.5 1747.99 3064.5 1756 3064.5 1764.01 3059.35 1770.5 3053 1770.5 3046.65 1770.5 3041.5 1764.01 3041.5 1756Z" stroke="#AFDAFF" stroke-width="3.24803" stroke-linecap="round" stroke-linejoin="round" stroke-miterlimit="10" fill="#AFDAFF" fill-rule="evenodd"/><path d="M3041.5 1723.5C3041.5 1715.22 3046.65 1708.5 3053 1708.5 3059.35 1708.5 3064.5 1715.22 3064.5 1723.5 3064.5 1731.78 3059.35 1738.5 3053 1738.5 3046.65 1738.5 3041.5 1731.78 3041.5 1723.5Z" stroke="#BF9000" stroke-width="3.24803" stroke-linecap="round" stroke-linejoin="round" stroke-miterlimit="10" fill="#BF9000" fill-rule="evenodd"/><path d="M3041.5 1732C3041.5 1725.65 3046.65 1720.5 3053 1720.5 3059.35 1720.5 3064.5 1725.65 3064.5 1732 3064.5 1738.35 3059.35 1743.5 3053 1743.5 3046.65 1743.5 3041.5 1738.35 3041.5 1732Z" stroke="#FFC000" stroke-width="3.24803" stroke-linecap="round" stroke-linejoin="round" stroke-miterlimit="10" fill="#FFC000" fill-rule="evenodd"/><text fill="#1A1A1A" font-family="Arial,Arial_MSFontService,sans-serif" font-weight="700" font-size="59" transform="matrix(1 0 0 1 990.255 1324)">THA</text><text fill="#1A1A1A" font-family="Arial,Arial_MSFontService,sans-serif" font-weight="700" font-size="59" transform="matrix(1 0 0 1 2421.02 1323)">USA</text><text fill="#1A1A1A" font-family="Arial,Arial_MSFontService,sans-serif" font-weight="700" font-size="59" transform="matrix(1 0 0 1 1000.28 334)">IDN</text><text fill="#1A1A1A" font-family="Arial,Arial_MSFontService,sans-serif" font-weight="700" font-size="59" transform="matrix(1 0 0 1 2419.59 333)">MYS</text><path d="M424.5 2105.5 1678.5 2105.5" stroke="#000000" stroke-width="7.33514" stroke-linejoin="round" stroke-miterlimit="10" fill="none" fill-rule="evenodd"/><path d="M481.5 2121.5 481.5 2105.5" stroke="#333333" stroke-width="7.33514" stroke-linejoin="round" stroke-miterlimit="10" fill="none" fill-rule="evenodd"/><path d="M766.5 2121.5 766.5 2105.5" stroke="#333333" stroke-width="7.33514" stroke-linejoin="round" stroke-miterlimit="10" fill="none" fill-rule="evenodd"/><path d="M1051.5 2121.5 1051.5 2105.5" stroke="#333333" stroke-width="7.33514" stroke-linejoin="round" stroke-miterlimit="10" fill="none" fill-rule="evenodd"/><path d="M1336.5 2121.5 1336.5 2105.5" stroke="#333333" stroke-width="7.33514" stroke-linejoin="round" stroke-miterlimit="10" fill="none" fill-rule="evenodd"/><path d="M1621.5 2121.5 1621.5 2105.5" stroke="#333333" stroke-width="7.33514" stroke-linejoin="round" stroke-miterlimit="10" fill="none" fill-rule="evenodd"/><text fill="#4D4D4D" font-family="Arial,Arial_MSFontService,sans-serif" font-weight="400" font-size="59" transform="matrix(1 0 0 1 415.397 2205)">1990</text><text fill="#4D4D4D" font-family="Arial,Arial_MSFontService,sans-serif" font-weight="400" font-size="59" transform="matrix(1 0 0 1 700.391 2205)">2000</text><text fill="#4D4D4D" font-family="Arial,Arial_MSFontService,sans-serif" font-weight="400" font-size="59" transform="matrix(1 0 0 1 985.385 2205)">2010</text><text fill="#4D4D4D" font-family="Arial,Arial_MSFontService,sans-serif" font-weight="400" font-size="59" transform="matrix(1 0 0 1 1270.38 2205)">2020</text><text fill="#4D4D4D" font-family="Arial,Arial_MSFontService,sans-serif" font-weight="400" font-size="59" transform="matrix(1 0 0 1 1555.37 2205)">2030</text><path d="M1856.5 2105.5 3110.5 2105.5" stroke="#000000" stroke-width="7.33514" stroke-linejoin="round" stroke-miterlimit="10" fill="none" fill-rule="evenodd"/><path d="M1913.5 2121.5 1913.5 2105.5" stroke="#333333" stroke-width="7.33514" stroke-linejoin="round" stroke-miterlimit="10" fill="none" fill-rule="evenodd"/><path d="M2198.5 2121.5 2198.5 2105.5" stroke="#333333" stroke-width="7.33514" stroke-linejoin="round" stroke-miterlimit="10" fill="none" fill-rule="evenodd"/><path d="M2483.5 2121.5 2483.5 2105.5" stroke="#333333" stroke-width="7.33514" stroke-linejoin="round" stroke-miterlimit="10" fill="none" fill-rule="evenodd"/><path d="M2768.5 2121.5 2768.5 2105.5" stroke="#333333" stroke-width="7.33514" stroke-linejoin="round" stroke-miterlimit="10" fill="none" fill-rule="evenodd"/><path d="M3053.5 2121.5 3053.5 2105.5" stroke="#333333" stroke-width="7.33514" stroke-linejoin="round" stroke-miterlimit="10" fill="none" fill-rule="evenodd"/><text fill="#4D4D4D" font-family="Arial,Arial_MSFontService,sans-serif" font-weight="400" font-size="59" transform="matrix(1 0 0 1 1847.6 2205)">1990</text><text fill="#4D4D4D" font-family="Arial,Arial_MSFontService,sans-serif" font-weight="400" font-size="59" transform="matrix(1 0 0 1 2132.59 2205)">2000</text><text fill="#4D4D4D" font-family="Arial,Arial_MSFontService,sans-serif" font-weight="400" font-size="59" transform="matrix(1 0 0 1 2417.59 2205)">2010</text><text fill="#4D4D4D" font-family="Arial,Arial_MSFontService,sans-serif" font-weight="400" font-size="59" transform="matrix(1 0 0 1 2702.58 2205)">2020</text><text fill="#4D4D4D" font-family="Arial,Arial_MSFontService,sans-serif" font-weight="400" font-size="59" transform="matrix(1 0 0 1 2987.57 2205)">2030</text><path d="M424.5 1115.5 1678.5 1115.5" stroke="#000000" stroke-width="7.33514" stroke-linejoin="round" stroke-miterlimit="10" fill="none" fill-rule="evenodd"/><path d="M481.5 1131.5 481.5 1115.5" stroke="#333333" stroke-width="7.33514" stroke-linejoin="round" stroke-miterlimit="10" fill="none" fill-rule="evenodd"/><path d="M766.5 1131.5 766.5 1115.5" stroke="#333333" stroke-width="7.33514" stroke-linejoin="round" stroke-miterlimit="10" fill="none" fill-rule="evenodd"/><path d="M1051.5 1131.5 1051.5 1115.5" stroke="#333333" stroke-width="7.33514" stroke-linejoin="round" stroke-miterlimit="10" fill="none" fill-rule="evenodd"/><path d="M1336.5 1131.5 1336.5 1115.5" stroke="#333333" stroke-width="7.33514" stroke-linejoin="round" stroke-miterlimit="10" fill="none" fill-rule="evenodd"/><path d="M1621.5 1131.5 1621.5 1115.5" stroke="#333333" stroke-width="7.33514" stroke-linejoin="round" stroke-miterlimit="10" fill="none" fill-rule="evenodd"/><text fill="#4D4D4D" font-family="Arial,Arial_MSFontService,sans-serif" font-weight="400" font-size="59" transform="matrix(1 0 0 1 415.397 1215)">1990</text><text fill="#4D4D4D" font-family="Arial,Arial_MSFontService,sans-serif" font-weight="400" font-size="59" transform="matrix(1 0 0 1 700.391 1215)">2000</text><text fill="#4D4D4D" font-family="Arial,Arial_MSFontService,sans-serif" font-weight="400" font-size="59" transform="matrix(1 0 0 1 985.385 1215)">2010</text><text fill="#4D4D4D" font-family="Arial,Arial_MSFontService,sans-serif" font-weight="400" font-size="59" transform="matrix(1 0 0 1 1270.38 1215)">2020</text><text fill="#4D4D4D" font-family="Arial,Arial_MSFontService,sans-serif" font-weight="400" font-size="59" transform="matrix(1 0 0 1 1555.37 1215)">2030</text><path d="M1856.5 1115.5 3110.5 1115.5" stroke="#000000" stroke-width="7.33514" stroke-linejoin="round" stroke-miterlimit="10" fill="none" fill-rule="evenodd"/><path d="M1913.5 1131.5 1913.5 1115.5" stroke="#333333" stroke-width="7.33514" stroke-linejoin="round" stroke-miterlimit="10" fill="none" fill-rule="evenodd"/><path d="M2198.5 1131.5 2198.5 1115.5" stroke="#333333" stroke-width="7.33514" stroke-linejoin="round" stroke-miterlimit="10" fill="none" fill-rule="evenodd"/><path d="M2483.5 1131.5 2483.5 1115.5" stroke="#333333" stroke-width="7.33514" stroke-linejoin="round" stroke-miterlimit="10" fill="none" fill-rule="evenodd"/><path d="M2768.5 1131.5 2768.5 1115.5" stroke="#333333" stroke-width="7.33514" stroke-linejoin="round" stroke-miterlimit="10" fill="none" fill-rule="evenodd"/><path d="M3053.5 1131.5 3053.5 1115.5" stroke="#333333" stroke-width="7.33514" stroke-linejoin="round" stroke-miterlimit="10" fill="none" fill-rule="evenodd"/><text fill="#4D4D4D" font-family="Arial,Arial_MSFontService,sans-serif" font-weight="400" font-size="59" transform="matrix(1 0 0 1 1847.6 1215)">1990</text><text fill="#4D4D4D" font-family="Arial,Arial_MSFontService,sans-serif" font-weight="400" font-size="59" transform="matrix(1 0 0 1 2132.59 1215)">2000</text><text fill="#4D4D4D" font-family="Arial,Arial_MSFontService,sans-serif" font-weight="400" font-size="59" transform="matrix(1 0 0 1 2417.59 1215)">2010</text><text fill="#4D4D4D" font-family="Arial,Arial_MSFontService,sans-serif" font-weight="400" font-size="59" transform="matrix(1 0 0 1 2702.58 1215)">2020</text><text fill="#4D4D4D" font-family="Arial,Arial_MSFontService,sans-serif" font-weight="400" font-size="59" transform="matrix(1 0 0 1 2987.57 1215)">2030</text><text fill="#4D4D4D" font-family="Arial,Arial_MSFontService,sans-serif" font-weight="400" font-size="59" transform="matrix(1 0 0 1 1800.67 1098)">0</text><text fill="#4D4D4D" font-family="Arial,Arial_MSFontService,sans-serif" font-weight="400" font-size="59" transform="matrix(1 0 0 1 1735.38 933)">100</text><text fill="#4D4D4D" font-family="Arial,Arial_MSFontService,sans-serif" font-weight="400" font-size="59" transform="matrix(1 0 0 1 1735.38 769)">200</text><text fill="#4D4D4D" font-family="Arial,Arial_MSFontService,sans-serif" font-weight="400" font-size="59" transform="matrix(1 0 0 1 1735.38 605)">300</text><text fill="#4D4D4D" font-family="Arial,Arial_MSFontService,sans-serif" font-weight="400" font-size="59" transform="matrix(1 0 0 1 1735.38 440)">400</text><text fill="#4D4D4D" font-family="Arial,Arial_MSFontService,sans-serif" font-weight="400" font-size="59" transform="matrix(1 0 0 1 1800.67 2028)">0</text><text fill="#4D4D4D" font-family="Arial,Arial_MSFontService,sans-serif" font-weight="400" font-size="59" transform="matrix(1 0 0 1 1702.74 1867)">2000</text><text fill="#4D4D4D" font-family="Arial,Arial_MSFontService,sans-serif" font-weight="400" font-size="59" transform="matrix(1 0 0 1 1702.74 1705)">4000</text><text fill="#4D4D4D" font-family="Arial,Arial_MSFontService,sans-serif" font-weight="400" font-size="59" transform="matrix(1 0 0 1 1702.74 1544)">6000</text><text fill="#4D4D4D" font-family="Arial,Arial_MSFontService,sans-serif" font-weight="400" font-size="59" transform="matrix(1 0 0 1 368.466 1103)">0</text><text fill="#4D4D4D" font-family="Arial,Arial_MSFontService,sans-serif" font-weight="400" font-size="59" transform="matrix(1 0 0 1 303.182 930)">500</text><text fill="#4D4D4D" font-family="Arial,Arial_MSFontService,sans-serif" font-weight="400" font-size="59" transform="matrix(1 0 0 1 270.54 757)">1000</text><text fill="#4D4D4D" font-family="Arial,Arial_MSFontService,sans-serif" font-weight="400" font-size="59" transform="matrix(1 0 0 1 270.54 585)">1500</text><text fill="#4D4D4D" font-family="Arial,Arial_MSFontService,sans-serif" font-weight="400" font-size="59" transform="matrix(1 0 0 1 270.54 412)">2000</text><text fill="#4D4D4D" font-family="Arial,Arial_MSFontService,sans-serif" font-weight="400" font-size="59" transform="matrix(1 0 0 1 368.466 2098)">0</text><text fill="#4D4D4D" font-family="Arial,Arial_MSFontService,sans-serif" font-weight="400" font-size="59" transform="matrix(1 0 0 1 303.182 1947)">100</text><text fill="#4D4D4D" font-family="Arial,Arial_MSFontService,sans-serif" font-weight="400" font-size="59" transform="matrix(1 0 0 1 303.182 1796)">200</text><text fill="#4D4D4D" font-family="Arial,Arial_MSFontService,sans-serif" font-weight="400" font-size="59" transform="matrix(1 0 0 1 303.182 1646)">300</text><text fill="#4D4D4D" font-family="Arial,Arial_MSFontService,sans-serif" font-weight="400" font-size="59" transform="matrix(1 0 0 1 303.182 1495)">400</text><text font-family="Arial,Arial_MSFontService,sans-serif" font-weight="400" font-size="55" transform="matrix(1 0 0 1 272.094 326)">MtCO2e</text><text font-family="Arial,Arial_MSFontService,sans-serif" font-weight="400" font-size="48" transform="matrix(1 0 0 1 1199.54 425)">NDC conditional</text><text font-family="Arial,Arial_MSFontService,sans-serif" font-weight="400" font-size="48" transform="matrix(1 0 0 1 1286.15 540)">NDC </text><text font-family="Arial,Arial_MSFontService,sans-serif" font-weight="400" font-size="48" transform="matrix(1 0 0 1 1404.17 540)">uncon</text><text font-family="Arial,Arial_MSFontService,sans-serif" font-weight="400" font-size="48" transform="matrix(1 0 0 1 1535.94 540)">.</text><text font-family="Arial,Arial_MSFontService,sans-serif" font-weight="400" font-size="48" transform="matrix(1 0 0 1 1114.62 884)">Rebased NDC </text><text font-family="Arial,Arial_MSFontService,sans-serif" font-weight="400" font-size="48" transform="matrix(1 0 0 1 1439.46 884)">uncon</text><text font-family="Arial,Arial_MSFontService,sans-serif" font-weight="400" font-size="48" transform="matrix(1 0 0 1 1571.23 884)">.</text><text font-family="Arial,Arial_MSFontService,sans-serif" font-weight="400" font-size="48" transform="matrix(1 0 0 1 1166.31 826)">Rebased NDC con.</text></g></svg>