<svg width="1919" height="1317" xmlns="http://www.w3.org/2000/svg" xmlns:xlink="http://www.w3.org/1999/xlink" xml:space="preserve" overflow="hidden"><defs><clipPath id="clip0"><rect x="740" y="579" width="1919" height="1317"/></clipPath><clipPath id="clip1"><rect x="869" y="678" width="818" height="491"/></clipPath><clipPath id="clip2"><rect x="869" y="1324" width="818" height="491"/></clipPath><clipPath id="clip3"><rect x="1816" y="678" width="818" height="491"/></clipPath><clipPath id="clip4"><rect x="1816" y="1324" width="818" height="491"/></clipPath><clipPath id="clip5"><rect x="869" y="1250" width="818" height="75"/></clipPath><clipPath id="clip6"><rect x="1816" y="1250" width="818" height="75"/></clipPath><clipPath id="clip7"><rect x="869" y="604" width="818" height="75"/></clipPath><clipPath id="clip8"><rect x="1816" y="604" width="818" height="75"/></clipPath></defs><g clip-path="url(#clip0)" transform="translate(-740 -579)"><path d="M0 0 1918.39 0 1918.39 1317-3.35595e-05 1317Z" fill="#FFFFFF" transform="matrix(1.00012 0 0 1 740.189 579)"/><path d="M1.46624e-13 0 1918.39 0 1918.39 1317-3.35595e-05 1317Z" stroke="#FFFFFF" stroke-width="4.90273" stroke-linecap="round" stroke-linejoin="round" stroke-miterlimit="10" fill="#FFFFFF" transform="matrix(1.00012 0 0 1 740.189 579)"/><g clip-path="url(#clip1)"><path d="M166.418 465.53 184.975 448.989 203.578 442.299 222.135 438.038 240.738 435.564 259.295 430.89 277.852 425.254 296.454 421.451 315.012 417.785 333.614 415.678 352.171 416.548 370.774 411.187 389.331 370.545 407.888 373.478 426.491 358.403 445.048 376.548 463.651 151.114 482.208 232.444 500.811 236.385 519.368 175.948 537.925 224.471 556.528 190.198 575.085 181.813 593.688 191.435 612.245 132.282 630.848 165.685 649.405 166.051 667.962 163.073 686.565 159.911 705.122 156.887 723.725 161.423 742.282 159.453 760.885 155.65 779.442 151.114 797.999 146.715 816.602 142.591 835.159 138.468 853.761 134.39 872.318 130.22 890.921 125.913 909.478 121.514 909.478 158.033 890.921 158.995 872.318 160.049 853.761 161.24 835.159 162.477 816.602 163.76 797.999 164.951 779.442 166.83 760.885 168.388 742.282 169.717 723.725 168.892 705.122 164.31 686.565 165.181 667.962 166.326 649.405 167.517 630.848 165.685 612.245 132.282 593.688 191.435 575.085 181.813 556.528 190.198 537.925 224.471 519.368 175.948 500.811 236.385 482.208 232.444 463.651 151.114 445.048 376.548 426.491 358.403 407.888 373.478 389.331 370.545 370.774 411.187 352.171 416.548 333.614 415.678 315.012 417.785 296.454 421.451 277.852 425.254 259.295 430.89 240.738 435.564 222.135 438.038 203.578 442.299 184.975 448.989 166.418 465.53Z" fill="#FF6718" fill-opacity="0.4" transform="matrix(1.00012 0 0 1 740.189 579)"/><path d="M166.418 465.53 184.975 448.989 203.578 442.299 222.135 438.038 240.738 435.564 259.295 430.89 277.852 425.254 296.454 421.451 315.012 417.785 333.614 415.678 352.171 416.548 370.774 411.187 389.331 370.545 407.888 373.478 426.491 358.403 445.048 376.548 463.651 151.114 482.208 232.444 500.811 236.385 519.368 175.948 537.925 224.471 556.528 190.198 575.085 181.813 593.688 191.435 612.245 132.282 630.848 165.685 649.405 166.051 667.962 163.073 686.565 159.911 705.122 156.887 723.725 161.423 742.282 159.453 760.885 155.65 779.442 151.114 797.999 146.715 816.602 142.591 835.159 138.468 853.761 134.39 872.318 130.22 890.921 125.913 909.478 121.514" stroke="#BEBEBE" stroke-width="11.7299" stroke-linejoin="round" stroke-miterlimit="10" fill="none" transform="matrix(1.00012 0 0 1 740.189 579)"/><path d="M166.418 465.53 184.975 448.989 203.578 442.299 222.135 438.038 240.738 435.564 259.295 430.89 277.852 425.254 296.454 421.451 315.012 417.785 333.614 415.678 352.171 416.548 370.774 411.187 389.331 370.545 407.888 373.478 426.491 358.403 445.048 376.548 463.651 151.114 482.208 232.444 500.811 236.385 519.368 175.948 537.925 224.471 556.528 190.198 575.085 181.813 593.688 191.435 612.245 132.282 630.848 165.685 649.405 167.517 667.962 166.326 686.565 165.181 705.122 164.31 723.725 168.892 742.282 169.717 760.885 168.388 779.442 166.83 797.999 164.951 816.602 163.76 835.159 162.477 853.761 161.24 872.318 160.049 890.921 158.995 909.478 158.033" stroke="#FF6718" stroke-width="11.7299" stroke-linejoin="round" stroke-miterlimit="10" fill="none" transform="matrix(1.00012 0 0 1 740.189 579)"/><path d="M920.888 235.514C920.888 241.815 915.779 246.923 909.478 246.923 903.177 246.923 898.069 241.815 898.069 235.514 898.069 229.213 903.177 224.105 909.478 224.105 915.779 224.105 920.888 229.213 920.888 235.514Z" stroke="#004678" stroke-width="3.25321" stroke-linecap="round" stroke-linejoin="round" stroke-miterlimit="10" fill="#004678" transform="matrix(1.00012 0 0 1 740.189 579)"/><path d="M920.888 294.255C920.888 300.556 915.779 305.664 909.478 305.664 903.177 305.664 898.069 300.556 898.069 294.255 898.069 287.954 903.177 282.846 909.478 282.846 915.779 282.846 920.888 287.954 920.888 294.255Z" stroke="#AFDAFF" stroke-width="3.25321" stroke-linecap="round" stroke-linejoin="round" stroke-miterlimit="10" fill="#AFDAFF" transform="matrix(1.00012 0 0 1 740.189 579)"/></g><g clip-path="url(#clip2)"><path d="M166.418 966.616 184.975 928.127 203.578 913.281 222.135 897.29 240.738 889.272 259.295 875.572 277.852 864.117 296.454 860.68 315.012 878.917 333.614 876.626 352.171 878.183 370.774 874.747 389.331 814.219 407.888 788.926 426.491 767.483 445.048 787.918 463.651 993.008 482.208 984.302 500.811 985.539 519.368 971.335 537.925 956.26 556.528 947.371 575.085 932.159 593.688 921.117 612.245 927.852 630.848 931.014 649.405 934.221 667.962 930.143 686.565 926.019 705.122 925.928 723.725 943.477 742.282 943.935 760.885 940.957 779.442 936.146 797.999 932.113 816.602 929.043 835.159 926.111 853.761 923.545 872.318 920.979 890.921 918.367 909.478 915.756 909.478 1002.08 890.921 998.644 872.318 995.345 853.761 992.183 835.159 989.113 816.602 986.135 797.999 982.607 779.442 980.682 760.885 979.033 742.282 976.238 723.725 968.174 705.122 951.724 686.565 945.447 667.962 942.835 649.405 940.224 630.848 931.014 612.245 927.852 593.688 921.117 575.085 932.159 556.528 947.371 537.925 956.26 519.368 971.335 500.811 985.539 482.208 984.302 463.651 993.008 445.048 787.918 426.491 767.483 407.888 788.926 389.331 814.219 370.774 874.747 352.171 878.183 333.614 876.626 315.012 878.917 296.454 860.68 277.852 864.117 259.295 875.572 240.738 889.272 222.135 897.29 203.578 913.281 184.975 928.127 166.418 966.616Z" fill="#FF6718" fill-opacity="0.4" transform="matrix(1.00012 0 0 1 740.189 579)"/><path d="M166.418 966.616 184.975 928.127 203.578 913.281 222.135 897.29 240.738 889.272 259.295 875.572 277.852 864.117 296.454 860.68 315.012 878.917 333.614 876.626 352.171 878.183 370.774 874.747 389.331 814.219 407.888 788.926 426.491 767.483 445.048 787.918 463.651 993.008 482.208 984.302 500.811 985.539 519.368 971.335 537.925 956.26 556.528 947.371 575.085 932.159 593.688 921.117 612.245 927.852 630.848 931.014 649.405 934.221 667.962 930.143 686.565 926.019 705.122 925.928 723.725 943.477 742.282 943.935 760.885 940.957 779.442 936.146 797.999 932.113 816.602 929.043 835.159 926.111 853.761 923.545 872.318 920.979 890.921 918.367 909.478 915.756" stroke="#BEBEBE" stroke-width="11.7299" stroke-linejoin="round" stroke-miterlimit="10" fill="none" transform="matrix(1.00012 0 0 1 740.189 579)"/><path d="M166.418 966.616 184.975 928.127 203.578 913.281 222.135 897.29 240.738 889.272 259.295 875.572 277.852 864.117 296.454 860.68 315.012 878.917 333.614 876.626 352.171 878.183 370.774 874.747 389.331 814.219 407.888 788.926 426.491 767.483 445.048 787.918 463.651 993.008 482.208 984.302 500.811 985.539 519.368 971.335 537.925 956.26 556.528 947.371 575.085 932.159 593.688 921.117 612.245 927.852 630.848 931.014 649.405 940.224 667.962 942.835 686.565 945.447 705.122 951.724 723.725 968.174 742.282 976.238 760.885 979.033 779.442 980.682 797.999 982.607 816.602 986.135 835.159 989.113 853.761 992.183 872.318 995.345 890.921 998.644 909.478 1002.08" stroke="#FF6718" stroke-width="11.7299" stroke-linejoin="round" stroke-miterlimit="10" fill="none" transform="matrix(1.00012 0 0 1 740.189 579)"/><path d="M920.888 965.424C920.888 971.726 915.779 976.834 909.478 976.834 903.177 976.834 898.069 971.726 898.069 965.424 898.069 959.123 903.177 954.015 909.478 954.015 915.779 954.015 920.888 959.123 920.888 965.424Z" stroke="#004678" stroke-width="3.25321" stroke-linecap="round" stroke-linejoin="round" stroke-miterlimit="10" fill="#004678" transform="matrix(1.00012 0 0 1 740.189 579)"/><path d="M920.888 1005.2C920.888 1011.5 915.779 1016.61 909.478 1016.61 903.177 1016.61 898.069 1011.5 898.069 1005.2 898.069 998.895 903.177 993.787 909.478 993.787 915.779 993.787 920.888 998.895 920.888 1005.2Z" stroke="#AFDAFF" stroke-width="3.25321" stroke-linecap="round" stroke-linejoin="round" stroke-miterlimit="10" fill="#AFDAFF" transform="matrix(1.00012 0 0 1 740.189 579)"/></g><g clip-path="url(#clip3)"><path d="M1113.06 374.852 1131.61 342.32 1150.22 329.445 1168.77 321.747 1187.33 312.171 1205.93 306.626 1224.49 284.541 1243.09 256.775 1261.65 258.287 1280.25 255.583 1298.81 239.409 1317.37 235.56 1335.97 186.074 1354.53 157.987 1373.13 128.616 1391.69 121.514 1410.29 290.36 1428.85 264.106 1447.4 250.176 1466.01 254.713 1484.56 243.029 1503.17 406.056 1521.72 381.267 1540.33 369.446 1558.88 343.603 1577.44 349.147 1596.04 264.289 1614.6 253.338 1633.2 245.594 1651.76 239.271 1670.36 267.176 1688.92 263.556 1707.48 251.963 1726.08 240.371 1744.64 230.52 1763.24 222.089 1781.8 213.429 1800.4 206.418 1818.96 199.316 1837.51 192.077 1856.12 184.746 1856.12 355.974 1837.51 351.438 1818.96 347.085 1800.4 342.824 1781.8 338.746 1763.24 335.768 1744.64 331.14 1726.08 329.17 1707.48 327.841 1688.92 327.566 1670.36 316.157 1651.76 290.131 1633.2 283.625 1614.6 278.264 1596.04 276.11 1577.44 349.147 1558.88 343.603 1540.33 369.446 1521.72 381.267 1503.17 406.056 1484.56 243.029 1466.01 254.713 1447.4 250.176 1428.85 264.106 1410.29 290.36 1391.69 121.514 1373.13 128.616 1354.53 157.987 1335.97 186.074 1317.37 235.56 1298.81 239.409 1280.25 255.583 1261.65 258.287 1243.09 256.775 1224.49 284.541 1205.93 306.626 1187.33 312.171 1168.77 321.747 1150.22 329.445 1131.61 342.32 1113.06 374.852Z" fill="#FF6718" fill-opacity="0.4" transform="matrix(1.00012 0 0 1 740.189 579)"/><path d="M1113.06 374.852 1131.61 342.32 1150.22 329.445 1168.77 321.747 1187.33 312.171 1205.93 306.626 1224.49 284.541 1243.09 256.775 1261.65 258.287 1280.25 255.583 1298.81 239.409 1317.37 235.56 1335.97 186.074 1354.53 157.987 1373.13 128.616 1391.69 121.514 1410.29 290.36 1428.85 264.106 1447.4 250.176 1466.01 254.713 1484.56 243.029 1503.17 406.056 1521.72 381.267 1540.33 369.446 1558.88 343.603 1577.44 349.147 1596.04 264.289 1614.6 253.338 1633.2 245.594 1651.76 239.271 1670.36 267.176 1688.92 263.556 1707.48 251.963 1726.08 240.371 1744.64 230.52 1763.24 222.089 1781.8 213.429 1800.4 206.418 1818.96 199.316 1837.51 192.077 1856.12 184.746" stroke="#BEBEBE" stroke-width="11.7299" stroke-linejoin="round" stroke-miterlimit="10" fill="none" transform="matrix(1.00012 0 0 1 740.189 579)"/><path d="M1113.06 374.852 1131.61 342.32 1150.22 329.445 1168.77 321.747 1187.33 312.171 1205.93 306.626 1224.49 284.541 1243.09 256.775 1261.65 258.287 1280.25 255.583 1298.81 239.409 1317.37 235.56 1335.97 186.074 1354.53 157.987 1373.13 128.616 1391.69 121.514 1410.29 290.36 1428.85 264.106 1447.4 250.176 1466.01 254.713 1484.56 243.029 1503.17 406.056 1521.72 381.267 1540.33 369.446 1558.88 343.603 1577.44 349.147 1596.04 276.11 1614.6 278.264 1633.2 283.625 1651.76 290.131 1670.36 316.157 1688.92 327.566 1707.48 327.841 1726.08 329.17 1744.64 331.14 1763.24 335.768 1781.8 338.746 1800.4 342.824 1818.96 347.085 1837.51 351.438 1856.12 355.974" stroke="#FF6718" stroke-width="11.7299" stroke-linejoin="round" stroke-miterlimit="10" fill="none" transform="matrix(1.00012 0 0 1 740.189 579)"/><path d="M1867.53 481.796C1867.53 488.097 1862.42 493.205 1856.12 493.205 1849.82 493.205 1844.71 488.097 1844.71 481.796 1844.71 475.495 1849.82 470.387 1856.12 470.387 1862.42 470.387 1867.53 475.495 1867.53 481.796Z" stroke="#004678" stroke-width="3.25321" stroke-linecap="round" stroke-linejoin="round" stroke-miterlimit="10" fill="#004678" transform="matrix(1.00012 0 0 1 740.189 579)"/><path d="M1867.53 461.498C1867.53 467.799 1862.42 472.907 1856.12 472.907 1849.82 472.907 1844.71 467.799 1844.71 461.498 1844.71 455.197 1849.82 450.089 1856.12 450.089 1862.42 450.089 1867.53 455.197 1867.53 461.498Z" stroke="#AFDAFF" stroke-width="3.25321" stroke-linecap="round" stroke-linejoin="round" stroke-miterlimit="10" fill="#AFDAFF" transform="matrix(1.00012 0 0 1 740.189 579)"/></g><g clip-path="url(#clip4)"><path d="M1113.06 826.636 1131.61 830.622 1150.22 823.52 1168.77 815.96 1187.33 811.699 1205.93 805.834 1224.49 796.12 1243.09 791.996 1261.65 790.622 1280.25 788.193 1298.81 778.067 1317.37 784.069 1335.97 781.458 1354.53 778.754 1373.13 767.483 1391.69 770.094 1410.29 777.838 1428.85 770.232 1447.4 781.824 1466.01 805.376 1484.56 794.837 1503.17 804.826 1521.72 819.03 1540.33 807.438 1558.88 804.597 1577.44 812.02 1596.04 815.594 1614.6 810.416 1633.2 808.629 1651.76 806.75 1670.36 822.146 1688.92 809.683 1707.48 802.443 1726.08 799.419 1744.64 798.823 1763.24 797.54 1781.8 796.166 1800.4 794.745 1818.96 793.371 1837.51 791.95 1856.12 790.576 1856.12 1213.03 1837.51 1191.04 1818.96 1169 1800.4 1146.92 1781.8 1124.79 1763.24 1100.59 1744.64 1071.45 1726.08 1044.46 1707.48 1019.45 1688.92 997.957 1670.36 966.249 1651.76 954.474 1633.2 922.491 1614.6 887.302 1596.04 853.487 1577.44 812.02 1558.88 804.597 1540.33 807.438 1521.72 819.03 1503.17 804.826 1484.56 794.837 1466.01 805.376 1447.4 781.824 1428.85 770.232 1410.29 777.838 1391.69 770.094 1373.13 767.483 1354.53 778.754 1335.97 781.458 1317.37 784.069 1298.81 778.067 1280.25 788.193 1261.65 790.622 1243.09 791.996 1224.49 796.12 1205.93 805.834 1187.33 811.699 1168.77 815.96 1150.22 823.52 1131.61 830.622 1113.06 826.636Z" fill="#FF6718" fill-opacity="0.4" transform="matrix(1.00012 0 0 1 740.189 579)"/><path d="M1113.06 826.636 1131.61 830.622 1150.22 823.52 1168.77 815.96 1187.33 811.699 1205.93 805.834 1224.49 796.12 1243.09 791.996 1261.65 790.622 1280.25 788.193 1298.81 778.067 1317.37 784.069 1335.97 781.458 1354.53 778.754 1373.13 767.483 1391.69 770.094 1410.29 777.838 1428.85 770.232 1447.4 781.824 1466.01 805.376 1484.56 794.837 1503.17 804.826 1521.72 819.03 1540.33 807.438 1558.88 804.597 1577.44 812.02 1596.04 815.594 1614.6 810.416 1633.2 808.629 1651.76 806.75 1670.36 822.146 1688.92 809.683 1707.48 802.443 1726.08 799.419 1744.64 798.823 1763.24 797.54 1781.8 796.166 1800.4 794.745 1818.96 793.371 1837.51 791.95 1856.12 790.576" stroke="#BEBEBE" stroke-width="11.7299" stroke-linejoin="round" stroke-miterlimit="10" fill="none" transform="matrix(1.00012 0 0 1 740.189 579)"/><path d="M1113.06 826.636 1131.61 830.622 1150.22 823.52 1168.77 815.96 1187.33 811.699 1205.93 805.834 1224.49 796.12 1243.09 791.996 1261.65 790.622 1280.25 788.193 1298.81 778.067 1317.37 784.069 1335.97 781.458 1354.53 778.754 1373.13 767.483 1391.69 770.094 1410.29 777.838 1428.85 770.232 1447.4 781.824 1466.01 805.376 1484.56 794.837 1503.17 804.826 1521.72 819.03 1540.33 807.438 1558.88 804.597 1577.44 812.02 1596.04 853.487 1614.6 887.302 1633.2 922.491 1651.76 954.474 1670.36 966.249 1688.92 997.957 1707.48 1019.45 1726.08 1044.46 1744.64 1071.45 1763.24 1100.59 1781.8 1124.79 1800.4 1146.92 1818.96 1169 1837.51 1191.04 1856.12 1213.03" stroke="#FF6718" stroke-width="11.7299" stroke-linejoin="round" stroke-miterlimit="10" fill="none" transform="matrix(1.00012 0 0 1 740.189 579)"/><path d="M1867.53 955.848C1867.53 962.149 1862.42 967.257 1856.12 967.257 1849.82 967.257 1844.71 962.149 1844.71 955.848 1844.71 949.547 1849.82 944.439 1856.12 944.439 1862.42 944.439 1867.53 949.547 1867.53 955.848Z" stroke="#004678" stroke-width="3.25321" stroke-linecap="round" stroke-linejoin="round" stroke-miterlimit="10" fill="#004678" transform="matrix(1.00012 0 0 1 740.189 579)"/><path d="M1867.53 963.088C1867.53 969.389 1862.42 974.497 1856.12 974.497 1849.82 974.497 1844.71 969.389 1844.71 963.088 1844.71 956.787 1849.82 951.678 1856.12 951.678 1862.42 951.678 1867.53 956.786 1867.53 963.088Z" stroke="#AFDAFF" stroke-width="3.25321" stroke-linecap="round" stroke-linejoin="round" stroke-miterlimit="10" fill="#AFDAFF" transform="matrix(1.00012 0 0 1 740.189 579)"/></g><g clip-path="url(#clip5)"><text fill="#1A1A1A" font-family="Arial,Arial_MSFontService,sans-serif" font-weight="700" font-size="8" transform="matrix(4.58255 0 0 4.58199 1241.52 1300)">THA</text></g><g clip-path="url(#clip6)"><text fill="#1A1A1A" font-family="Arial,Arial_MSFontService,sans-serif" font-weight="700" font-size="8" transform="matrix(4.58255 0 0 4.58199 2188.27 1300)">USA</text></g><g clip-path="url(#clip7)"><text fill="#1A1A1A" font-family="Arial,Arial_MSFontService,sans-serif" font-weight="700" font-size="8" transform="matrix(4.58255 0 0 4.58199 1246.1 654)">IDN</text></g><g clip-path="url(#clip8)"><text fill="#1A1A1A" font-family="Arial,Arial_MSFontService,sans-serif" font-weight="700" font-size="8" transform="matrix(4.58255 0 0 4.58199 2185.98 654)">MYS</text></g><path d="M129.258 1235.35 946.638 1235.35" stroke="#000000" stroke-width="4.90273" stroke-linejoin="round" stroke-miterlimit="10" fill="none" transform="matrix(1.00012 0 0 1 740.189 579)"/><path d="M166.418 1247.9 166.418 1235.35" stroke="#333333" stroke-width="4.90273" stroke-linejoin="round" stroke-miterlimit="10" fill="none" transform="matrix(1.00012 0 0 1 740.189 579)"/><path d="M352.171 1247.9 352.171 1235.35" stroke="#333333" stroke-width="4.90273" stroke-linejoin="round" stroke-miterlimit="10" fill="none" transform="matrix(1.00012 0 0 1 740.189 579)"/><path d="M537.925 1247.9 537.925 1235.35" stroke="#333333" stroke-width="4.90273" stroke-linejoin="round" stroke-miterlimit="10" fill="none" transform="matrix(1.00012 0 0 1 740.189 579)"/><path d="M723.725 1247.9 723.725 1235.35" stroke="#333333" stroke-width="4.90273" stroke-linejoin="round" stroke-miterlimit="10" fill="none" transform="matrix(1.00012 0 0 1 740.189 579)"/><path d="M909.478 1247.9 909.478 1235.35" stroke="#333333" stroke-width="4.90273" stroke-linejoin="round" stroke-miterlimit="10" fill="none" transform="matrix(1.00012 0 0 1 740.189 579)"/><text font-family="Arial,Arial_MSFontService,sans-serif" font-weight="400" font-size="8" transform="matrix(4.58255 0 0 4.58199 869.966 1877)">1990</text><text font-family="Arial,Arial_MSFontService,sans-serif" font-weight="400" font-size="8" transform="matrix(4.58255 0 0 4.58199 1055.74 1877)">2000</text><text font-family="Arial,Arial_MSFontService,sans-serif" font-weight="400" font-size="8" transform="matrix(4.58255 0 0 4.58199 1241.52 1877)">2010</text><text font-family="Arial,Arial_MSFontService,sans-serif" font-weight="400" font-size="8" transform="matrix(4.58255 0 0 4.58199 1427.34 1877)">2020</text><text font-family="Arial,Arial_MSFontService,sans-serif" font-weight="400" font-size="8" transform="matrix(4.58255 0 0 4.58199 1613.12 1877)">2030</text><path d="M1075.9 1235.35 1893.28 1235.35" stroke="#000000" stroke-width="4.90273" stroke-linejoin="round" stroke-miterlimit="10" fill="none" transform="matrix(1.00012 0 0 1 740.189 579)"/><path d="M1113.06 1247.9 1113.06 1235.35" stroke="#333333" stroke-width="4.90273" stroke-linejoin="round" stroke-miterlimit="10" fill="none" transform="matrix(1.00012 0 0 1 740.189 579)"/><path d="M1298.81 1247.9 1298.81 1235.35" stroke="#333333" stroke-width="4.90273" stroke-linejoin="round" stroke-miterlimit="10" fill="none" transform="matrix(1.00012 0 0 1 740.189 579)"/><path d="M1484.56 1247.9 1484.56 1235.35" stroke="#333333" stroke-width="4.90273" stroke-linejoin="round" stroke-miterlimit="10" fill="none" transform="matrix(1.00012 0 0 1 740.189 579)"/><path d="M1670.36 1247.9 1670.36 1235.35" stroke="#333333" stroke-width="4.90273" stroke-linejoin="round" stroke-miterlimit="10" fill="none" transform="matrix(1.00012 0 0 1 740.189 579)"/><path d="M1856.12 1247.9 1856.12 1235.35" stroke="#333333" stroke-width="4.90273" stroke-linejoin="round" stroke-miterlimit="10" fill="none" transform="matrix(1.00012 0 0 1 740.189 579)"/><text font-family="Arial,Arial_MSFontService,sans-serif" font-weight="400" font-size="8" transform="matrix(4.58255 0 0 4.58199 1816.72 1877)">1990</text><text font-family="Arial,Arial_MSFontService,sans-serif" font-weight="400" font-size="8" transform="matrix(4.58255 0 0 4.58199 2002.5 1877)">2000</text><text font-family="Arial,Arial_MSFontService,sans-serif" font-weight="400" font-size="8" transform="matrix(4.58255 0 0 4.58199 2188.27 1877)">2010</text><text font-family="Arial,Arial_MSFontService,sans-serif" font-weight="400" font-size="8" transform="matrix(4.58255 0 0 4.58199 2374.1 1877)">2020</text><text font-family="Arial,Arial_MSFontService,sans-serif" font-weight="400" font-size="8" transform="matrix(4.58255 0 0 4.58199 2559.87 1877)">2030</text><path d="M129.258 589.381 946.638 589.381" stroke="#000000" stroke-width="4.90273" stroke-linejoin="round" stroke-miterlimit="10" fill="none" transform="matrix(1.00012 0 0 1 740.189 579)"/><path d="M166.418 601.935 166.418 589.381" stroke="#333333" stroke-width="4.90273" stroke-linejoin="round" stroke-miterlimit="10" fill="none" transform="matrix(1.00012 0 0 1 740.189 579)"/><path d="M352.171 601.935 352.171 589.381" stroke="#333333" stroke-width="4.90273" stroke-linejoin="round" stroke-miterlimit="10" fill="none" transform="matrix(1.00012 0 0 1 740.189 579)"/><path d="M537.925 601.935 537.925 589.381" stroke="#333333" stroke-width="4.90273" stroke-linejoin="round" stroke-miterlimit="10" fill="none" transform="matrix(1.00012 0 0 1 740.189 579)"/><path d="M723.725 601.935 723.725 589.381" stroke="#333333" stroke-width="4.90273" stroke-linejoin="round" stroke-miterlimit="10" fill="none" transform="matrix(1.00012 0 0 1 740.189 579)"/><path d="M909.478 601.935 909.478 589.381" stroke="#333333" stroke-width="4.90273" stroke-linejoin="round" stroke-miterlimit="10" fill="none" transform="matrix(1.00012 0 0 1 740.189 579)"/><text font-family="Arial,Arial_MSFontService,sans-serif" font-weight="400" font-size="8" transform="matrix(4.58255 0 0 4.58199 869.966 1231)">1990</text><text font-family="Arial,Arial_MSFontService,sans-serif" font-weight="400" font-size="8" transform="matrix(4.58255 0 0 4.58199 1055.74 1231)">2000</text><text font-family="Arial,Arial_MSFontService,sans-serif" font-weight="400" font-size="8" transform="matrix(4.58255 0 0 4.58199 1241.52 1231)">2010</text><text font-family="Arial,Arial_MSFontService,sans-serif" font-weight="400" font-size="8" transform="matrix(4.58255 0 0 4.58199 1427.34 1231)">2020</text><text font-family="Arial,Arial_MSFontService,sans-serif" font-weight="400" font-size="8" transform="matrix(4.58255 0 0 4.58199 1613.12 1231)">2030</text><path d="M1075.9 589.381 1893.28 589.381" stroke="#000000" stroke-width="4.90273" stroke-linejoin="round" stroke-miterlimit="10" fill="none" transform="matrix(1.00012 0 0 1 740.189 579)"/><path d="M1113.06 601.935 1113.06 589.381" stroke="#333333" stroke-width="4.90273" stroke-linejoin="round" stroke-miterlimit="10" fill="none" transform="matrix(1.00012 0 0 1 740.189 579)"/><path d="M1298.81 601.935 1298.81 589.381" stroke="#333333" stroke-width="4.90273" stroke-linejoin="round" stroke-miterlimit="10" fill="none" transform="matrix(1.00012 0 0 1 740.189 579)"/><path d="M1484.56 601.935 1484.56 589.381" stroke="#333333" stroke-width="4.90273" stroke-linejoin="round" stroke-miterlimit="10" fill="none" transform="matrix(1.00012 0 0 1 740.189 579)"/><path d="M1670.36 601.935 1670.36 589.381" stroke="#333333" stroke-width="4.90273" stroke-linejoin="round" stroke-miterlimit="10" fill="none" transform="matrix(1.00012 0 0 1 740.189 579)"/><path d="M1856.12 601.935 1856.12 589.381" stroke="#333333" stroke-width="4.90273" stroke-linejoin="round" stroke-miterlimit="10" fill="none" transform="matrix(1.00012 0 0 1 740.189 579)"/><text font-family="Arial,Arial_MSFontService,sans-serif" font-weight="400" font-size="8" transform="matrix(4.58255 0 0 4.58199 1816.72 1231)">1990</text><text font-family="Arial,Arial_MSFontService,sans-serif" font-weight="400" font-size="8" transform="matrix(4.58255 0 0 4.58199 2002.5 1231)">2000</text><text font-family="Arial,Arial_MSFontService,sans-serif" font-weight="400" font-size="8" transform="matrix(4.58255 0 0 4.58199 2188.27 1231)">2010</text><text font-family="Arial,Arial_MSFontService,sans-serif" font-weight="400" font-size="8" transform="matrix(4.58255 0 0 4.58199 2374.1 1231)">2020</text><text font-family="Arial,Arial_MSFontService,sans-serif" font-weight="400" font-size="8" transform="matrix(4.58255 0 0 4.58199 2559.87 1231)">2030</text><text font-family="Arial,Arial_MSFontService,sans-serif" font-weight="400" font-size="8" transform="matrix(4.58255 0 0 4.58199 1738.64 1055)">100</text><text font-family="Arial,Arial_MSFontService,sans-serif" font-weight="400" font-size="8" transform="matrix(4.58255 0 0 4.58199 1738.64 924)">200</text><text font-family="Arial,Arial_MSFontService,sans-serif" font-weight="400" font-size="8" transform="matrix(4.58255 0 0 4.58199 1738.64 794)">300</text><text font-family="Arial,Arial_MSFontService,sans-serif" font-weight="400" font-size="8" transform="matrix(4.58255 0 0 4.58199 1775.3 1728)">0</text><text font-family="Arial,Arial_MSFontService,sans-serif" font-weight="400" font-size="8" transform="matrix(4.58255 0 0 4.58199 1720.3 1592)">2500</text><text font-family="Arial,Arial_MSFontService,sans-serif" font-weight="400" font-size="8" transform="matrix(4.58255 0 0 4.58199 1720.3 1457)">5000</text><text font-family="Arial,Arial_MSFontService,sans-serif" font-weight="400" font-size="8" transform="matrix(4.58255 0 0 4.58199 828.54 1181)">0</text><text font-family="Arial,Arial_MSFontService,sans-serif" font-weight="400" font-size="8" transform="matrix(4.58255 0 0 4.58199 773.549 1000)">1000</text><text font-family="Arial,Arial_MSFontService,sans-serif" font-weight="400" font-size="8" transform="matrix(4.58255 0 0 4.58199 773.549 819)">2000</text><text font-family="Arial,Arial_MSFontService,sans-serif" font-weight="400" font-size="8" transform="matrix(4.58255 0 0 4.58199 791.88 1693)">200</text><text font-family="Arial,Arial_MSFontService,sans-serif" font-weight="400" font-size="8" transform="matrix(4.58255 0 0 4.58199 791.88 1549)">400</text><text font-family="Arial,Arial_MSFontService,sans-serif" font-weight="400" font-size="8" transform="matrix(4.58255 0 0 4.58199 791.88 1406)">600</text><text font-family="Arial,Arial_MSFontService,sans-serif" font-weight="400" font-size="37" transform="matrix(1 0 0 1 870.328 821)">MtCO</text><text font-family="Arial,Arial_MSFontService,sans-serif" font-weight="400" font-size="24" transform="matrix(1 0 0 1 966.005 829)">2</text><text font-family="Arial,Arial_MSFontService,sans-serif" font-weight="400" font-size="37" transform="matrix(1 0 0 1 979.755 821)">e</text><text fill="#AFDAFF" font-family="Arial,Arial_MSFontService,sans-serif" font-weight="700" font-size="37" transform="matrix(1 0 0 1 1332.72 885)">NDC conditional</text><text fill="#004678" font-family="Arial,Arial_MSFontService,sans-serif" font-weight="700" font-size="37" transform="matrix(1 0 0 1 1331.36 828)">NDC </text><text fill="#004678" font-family="Arial,Arial_MSFontService,sans-serif" font-weight="700" font-size="37" transform="matrix(1 0 0 1 1420.73 828)">uncon</text><text fill="#004678" font-family="Arial,Arial_MSFontService,sans-serif" font-weight="700" font-size="37" transform="matrix(1 0 0 1 1530.73 828)">.</text><text fill="#FF6718" font-family="Arial,Arial_MSFontService,sans-serif" font-weight="400" font-size="37" transform="matrix(1 0 0 1 1223.06 971)">Emission allowance</text><text fill="#909090" font-family="Arial,Arial_MSFontService,sans-serif" font-weight="400" font-size="37" transform="matrix(1 0 0 1 1319.83 672)">Projected emission</text></g></svg>