<svg width="1918" height="1317" xmlns="http://www.w3.org/2000/svg" xmlns:xlink="http://www.w3.org/1999/xlink" xml:space="preserve" overflow="hidden"><defs><clipPath id="clip0"><rect x="691" y="579" width="1918" height="1317"/></clipPath><clipPath id="clip1"><rect x="820" y="678" width="818" height="491"/></clipPath><clipPath id="clip2"><rect x="820" y="1324" width="818" height="491"/></clipPath><clipPath id="clip3"><rect x="1766" y="678" width="818" height="491"/></clipPath><clipPath id="clip4"><rect x="1766" y="1324" width="818" height="491"/></clipPath><clipPath id="clip5"><rect x="820" y="1250" width="818" height="75"/></clipPath><clipPath id="clip6"><rect x="1766" y="1250" width="818" height="75"/></clipPath><clipPath id="clip7"><rect x="820" y="604" width="818" height="75"/></clipPath><clipPath id="clip8"><rect x="1766" y="604" width="818" height="75"/></clipPath></defs><g clip-path="url(#clip0)" transform="translate(-691 -579)"><path d="M0 0 1917.62 0 1917.62 1316.48-3.35461e-05 1316.48Z" fill="#FFFFFF" transform="matrix(1 0 0 1.0004 691.188 579)"/><path d="M1.46565e-13 0 1917.62 0 1917.62 1316.48-3.35461e-05 1316.48Z" stroke="#FFFFFF" stroke-width="4.90078" stroke-linecap="round" stroke-linejoin="round" stroke-miterlimit="10" fill="#FFFFFF" transform="matrix(1 0 0 1.0004 691.188 579)"/><g clip-path="url(#clip1)"><path d="M166.352 497.36 184.901 492.459 203.497 487.421 222.046 483.849 240.642 480.001 259.192 473.36 277.741 465.528 296.337 459.07 314.886 453.07 333.482 447.391 352.031 445.925 370.627 438.459 389.177 437.635 407.726 430.077 426.322 427.925 444.871 427.787 463.467 425.772 482.017 421.055 500.612 423.711 519.162 418.215 537.711 406.306 556.307 392.658 574.857 381.986 593.452 391.925 612.002 381.116 630.597 377.589 649.147 373.925 667.696 370.123 686.292 366.138 704.842 362.291 723.437 368.062 741.987 365.543 760.582 360.734 779.132 354.963 797.682 349.375 816.277 344.108 834.827 338.886 853.422 333.711 871.972 328.398 890.567 322.947 909.117 317.36 909.117 347.36 890.567 350.062 871.972 352.764 853.422 355.558 834.827 358.398 816.277 361.283 797.682 364.077 779.132 367.558 760.582 370.856 741.987 373.696 723.437 374.016 704.842 368.199 686.292 370.444 667.696 372.825 649.147 375.116 630.597 377.589 612.002 381.116 593.452 391.925 574.857 381.986 556.307 392.658 537.711 406.306 519.162 418.215 500.612 423.711 482.017 421.055 463.467 425.772 444.871 427.787 426.322 427.925 407.726 430.077 389.177 437.635 370.627 438.459 352.031 445.925 333.482 447.391 314.886 453.07 296.337 459.07 277.741 465.528 259.192 473.36 240.642 480.001 222.046 483.849 203.497 487.421 184.901 492.459 166.352 497.36Z" fill="#FF6718" fill-opacity="0.4" transform="matrix(1 0 0 1.0004 691.188 579)"/><path d="M166.352 497.36 184.901 492.459 203.497 487.421 222.046 483.849 240.642 480.001 259.192 473.36 277.741 465.528 296.337 459.07 314.886 453.07 333.482 447.391 352.031 445.925 370.627 438.459 389.177 437.635 407.726 430.077 426.322 427.925 444.871 427.787 463.467 425.772 482.017 421.055 500.612 423.711 519.162 418.215 537.711 406.306 556.307 392.658 574.857 381.986 593.452 391.925 612.002 381.116 630.597 377.589 649.147 373.925 667.696 370.123 686.292 366.138 704.842 362.291 723.437 368.062 741.987 365.543 760.582 360.734 779.132 354.963 797.682 349.375 816.277 344.108 834.827 338.886 853.422 333.711 871.972 328.398 890.567 322.947 909.117 317.36" stroke="#BEBEBE" stroke-width="11.7252" stroke-linejoin="round" stroke-miterlimit="10" fill="none" transform="matrix(1 0 0 1.0004 691.188 579)"/><path d="M166.352 497.36 184.901 492.459 203.497 487.421 222.046 483.849 240.642 480.001 259.192 473.36 277.741 465.528 296.337 459.07 314.886 453.07 333.482 447.391 352.031 445.925 370.627 438.459 389.177 437.635 407.726 430.077 426.322 427.925 444.871 427.787 463.467 425.772 482.017 421.055 500.612 423.711 519.162 418.215 537.711 406.306 556.307 392.658 574.857 381.986 593.452 391.925 612.002 381.116 630.597 377.589 649.147 375.116 667.696 372.825 686.292 370.444 704.842 368.199 723.437 374.016 741.987 373.696 760.582 370.856 779.132 367.558 797.682 364.077 816.277 361.283 834.827 358.398 853.422 355.558 871.972 352.764 890.567 350.062 909.117 347.36" stroke="#FF6718" stroke-width="11.7252" stroke-linejoin="round" stroke-miterlimit="10" fill="none" transform="matrix(1 0 0 1.0004 691.188 579)"/><path d="M920.522 121.466C920.522 127.765 915.416 132.871 909.117 132.871 902.818 132.871 897.712 127.765 897.712 121.466 897.712 115.167 902.818 110.061 909.117 110.061 915.415 110.061 920.522 115.167 920.522 121.466Z" stroke="#004678" stroke-width="3.25192" stroke-linecap="round" stroke-linejoin="round" stroke-miterlimit="10" fill="#004678" transform="matrix(1 0 0 1.0004 691.188 579)"/><path d="M920.522 196.077C920.522 202.375 915.416 207.481 909.117 207.481 902.818 207.481 897.712 202.375 897.712 196.077 897.712 189.778 902.818 184.672 909.117 184.672 915.415 184.672 920.522 189.778 920.522 196.077Z" stroke="#AFDAFF" stroke-width="3.25192" stroke-linecap="round" stroke-linejoin="round" stroke-miterlimit="10" fill="#AFDAFF" transform="matrix(1 0 0 1.0004 691.188 579)"/></g><g clip-path="url(#clip2)"><path d="M166.352 1031.09 184.901 1017.35 203.497 1006.58 222.046 991.193 240.642 977.911 259.192 957.758 277.741 939.621 296.337 931.789 314.886 954.323 333.482 944.064 352.031 940.262 370.627 926.43 389.177 915.896 407.726 898.537 426.322 881.544 444.871 873.025 463.467 867.483 482.017 855.346 500.612 857.132 519.162 837.254 537.711 816.094 556.307 818.43 574.857 798.46 593.452 782.475 612.002 793.056 630.597 796.582 649.147 793.101 667.696 787.422 686.292 781.605 704.842 781.468 723.437 806.063 741.987 806.704 760.582 802.582 779.132 795.758 797.682 790.17 816.277 785.819 834.827 781.742 853.422 778.17 871.972 774.552 890.567 770.888 909.117 767.178 909.117 870.644 890.567 866.796 871.972 863.132 853.422 859.651 834.827 856.353 816.277 853.239 797.682 849.575 779.132 847.972 760.582 846.781 741.987 843.987 723.437 834.369 704.842 810.231 686.292 803.727 667.696 801.666 649.147 799.788 630.597 796.582 612.002 793.056 593.452 782.475 574.857 798.46 556.307 818.43 537.711 816.094 519.162 837.254 500.612 857.132 482.017 855.346 463.467 867.483 444.871 873.025 426.322 881.544 407.726 898.537 389.177 915.896 370.627 926.43 352.031 940.262 333.482 944.064 314.886 954.323 296.337 931.789 277.741 939.621 259.192 957.758 240.642 977.911 222.046 991.193 203.497 1006.58 184.901 1017.35 166.352 1031.09Z" fill="#FF6718" fill-opacity="0.4" transform="matrix(1 0 0 1.0004 691.188 579)"/><path d="M166.352 1031.09 184.901 1017.35 203.497 1006.58 222.046 991.193 240.642 977.911 259.192 957.758 277.741 939.621 296.337 931.789 314.886 954.323 333.482 944.064 352.031 940.262 370.627 926.43 389.177 915.896 407.726 898.537 426.322 881.544 444.871 873.025 463.467 867.483 482.017 855.346 500.612 857.132 519.162 837.254 537.711 816.094 556.307 818.43 574.857 798.46 593.452 782.475 612.002 793.056 630.597 796.582 649.147 793.101 667.696 787.422 686.292 781.605 704.842 781.468 723.437 806.063 741.987 806.704 760.582 802.582 779.132 795.758 797.682 790.17 816.277 785.819 834.827 781.742 853.422 778.17 871.972 774.552 890.567 770.888 909.117 767.178" stroke="#BEBEBE" stroke-width="11.7252" stroke-linejoin="round" stroke-miterlimit="10" fill="none" transform="matrix(1 0 0 1.0004 691.188 579)"/><path d="M166.352 1031.09 184.901 1017.35 203.497 1006.58 222.046 991.193 240.642 977.911 259.192 957.758 277.741 939.621 296.337 931.789 314.886 954.323 333.482 944.064 352.031 940.262 370.627 926.43 389.177 915.896 407.726 898.537 426.322 881.544 444.871 873.025 463.467 867.483 482.017 855.346 500.612 857.132 519.162 837.254 537.711 816.094 556.307 818.43 574.857 798.46 593.452 782.475 612.002 793.056 630.597 796.582 649.147 799.788 667.696 801.666 686.292 803.727 704.842 810.231 723.437 834.369 741.987 843.987 760.582 846.781 779.132 847.972 797.682 849.575 816.277 853.239 834.827 856.353 853.422 859.651 871.972 863.132 890.567 866.796 909.117 870.644" stroke="#FF6718" stroke-width="11.7252" stroke-linejoin="round" stroke-miterlimit="10" fill="none" transform="matrix(1 0 0 1.0004 691.188 579)"/><path d="M920.522 829.468C920.522 835.766 915.416 840.873 909.117 840.873 902.818 840.873 897.712 835.767 897.712 829.468 897.712 823.169 902.818 818.063 909.117 818.063 915.415 818.063 920.522 823.169 920.522 829.468Z" stroke="#004678" stroke-width="3.25192" stroke-linecap="round" stroke-linejoin="round" stroke-miterlimit="10" fill="#004678" transform="matrix(1 0 0 1.0004 691.188 579)"/><path d="M920.522 885.254C920.522 891.553 915.416 896.659 909.117 896.659 902.818 896.659 897.712 891.553 897.712 885.254 897.712 878.956 902.818 873.85 909.117 873.85 915.415 873.85 920.522 878.956 920.522 885.254Z" stroke="#AFDAFF" stroke-width="3.25192" stroke-linecap="round" stroke-linejoin="round" stroke-miterlimit="10" fill="#AFDAFF" transform="matrix(1 0 0 1.0004 691.188 579)"/></g><g clip-path="url(#clip3)"><path d="M1112.61 466.352 1131.16 454.215 1149.76 447.024 1168.31 443.406 1186.86 434.429 1205.45 429.482 1224 409.558 1242.6 385.65 1261.15 397.833 1279.74 380.016 1298.29 364.26 1316.84 356.383 1335.44 344.612 1353.99 326.428 1372.58 308.245 1391.13 289.008 1409.73 289.604 1428.28 268.901 1446.83 255.253 1465.42 269.68 1483.97 253.97 1502.57 254.382 1521.12 232.352 1539.71 223.512 1558.26 214.901 1576.81 209.634 1595.41 204.23 1613.96 194.978 1632.55 188.428 1651.1 183.115 1669.7 206.657 1688.25 203.634 1706.8 193.833 1725.39 184.031 1743.94 175.741 1762.54 168.596 1781.09 161.268 1799.68 155.359 1818.23 149.359 1836.78 143.268 1855.38 137.084 1855.38 277.329 1836.78 273.436 1818.23 269.68 1799.68 266.108 1781.09 262.718 1762.54 260.291 1743.94 256.581 1725.39 255.115 1706.8 254.108 1688.25 254.062 1669.7 244.81 1651.1 221.451 1632.55 217.649 1613.96 213.939 1595.41 213.115 1576.81 209.634 1558.26 214.901 1539.71 223.512 1521.12 232.352 1502.57 254.382 1483.97 253.97 1465.42 269.68 1446.83 255.253 1428.28 268.901 1409.73 289.604 1391.13 289.008 1372.58 308.245 1353.99 326.428 1335.44 344.612 1316.84 356.383 1298.29 364.26 1279.74 380.016 1261.15 397.833 1242.6 385.65 1224 409.558 1205.45 429.482 1186.86 434.429 1168.31 443.406 1149.76 447.024 1131.16 454.215 1112.61 466.352Z" fill="#FF6718" fill-opacity="0.4" transform="matrix(1 0 0 1.0004 691.188 579)"/><path d="M1112.61 466.352 1131.16 454.215 1149.76 447.024 1168.31 443.406 1186.86 434.429 1205.45 429.482 1224 409.558 1242.6 385.65 1261.15 397.833 1279.74 380.016 1298.29 364.26 1316.84 356.383 1335.44 344.612 1353.99 326.428 1372.58 308.245 1391.13 289.008 1409.73 289.604 1428.28 268.901 1446.83 255.253 1465.42 269.68 1483.97 253.97 1502.57 254.382 1521.12 232.352 1539.71 223.512 1558.26 214.901 1576.81 209.634 1595.41 204.23 1613.96 194.978 1632.55 188.428 1651.1 183.115 1669.7 206.657 1688.25 203.634 1706.8 193.833 1725.39 184.031 1743.94 175.741 1762.54 168.596 1781.09 161.268 1799.68 155.359 1818.23 149.359 1836.78 143.268 1855.38 137.084" stroke="#BEBEBE" stroke-width="11.7252" stroke-linejoin="round" stroke-miterlimit="10" fill="none" transform="matrix(1 0 0 1.0004 691.188 579)"/><path d="M1112.61 466.352 1131.16 454.215 1149.76 447.024 1168.31 443.406 1186.86 434.429 1205.45 429.482 1224 409.558 1242.6 385.65 1261.15 397.833 1279.74 380.016 1298.29 364.26 1316.84 356.383 1335.44 344.612 1353.99 326.428 1372.58 308.245 1391.13 289.008 1409.73 289.604 1428.28 268.901 1446.83 255.253 1465.42 269.68 1483.97 253.97 1502.57 254.382 1521.12 232.352 1539.71 223.512 1558.26 214.901 1576.81 209.634 1595.41 213.115 1613.96 213.939 1632.55 217.649 1651.1 221.451 1669.7 244.81 1688.25 254.062 1706.8 254.108 1725.39 255.115 1743.94 256.581 1762.54 260.291 1781.09 262.718 1799.68 266.108 1818.23 269.68 1836.78 273.436 1855.38 277.329" stroke="#FF6718" stroke-width="11.7252" stroke-linejoin="round" stroke-miterlimit="10" fill="none" transform="matrix(1 0 0 1.0004 691.188 579)"/><path d="M1866.78 121.466C1866.78 127.765 1861.68 132.871 1855.38 132.871 1849.08 132.871 1843.97 127.765 1843.97 121.466 1843.97 115.167 1849.08 110.061 1855.38 110.061 1861.68 110.061 1866.78 115.167 1866.78 121.466Z" stroke="#004678" stroke-width="3.25192" stroke-linecap="round" stroke-linejoin="round" stroke-miterlimit="10" fill="#004678" transform="matrix(1 0 0 1.0004 691.188 579)"/></g><g clip-path="url(#clip4)"><path d="M1112.61 818.292 1131.16 822.323 1149.76 816.002 1168.31 809.59 1186.86 804.414 1205.45 800.201 1224 789.666 1242.6 786.506 1261.15 784.72 1279.74 782.521 1298.29 772.582 1316.84 778.72 1335.44 777.437 1353.99 773.819 1372.58 768.048 1391.13 767.956 1409.73 772.674 1428.28 767.178 1446.83 779.636 1465.42 804.643 1483.97 792.918 1502.57 801.895 1521.12 815.04 1539.71 805.147 1558.26 801.529 1576.81 810.094 1595.41 810.185 1613.96 808.536 1632.55 805.01 1651.1 803.819 1669.7 819.163 1688.25 806.796 1706.8 799.651 1725.39 796.674 1743.94 796.124 1762.54 794.796 1781.09 793.422 1799.68 792.048 1818.23 790.674 1836.78 789.3 1855.38 787.926 1855.38 1212.55 1836.78 1190.2 1818.23 1167.85 1799.68 1145.45 1781.09 1123.01 1762.54 1098.51 1743.94 1069.15 1725.39 1041.9 1706.8 1016.61 1688.25 994.949 1669.7 962.293 1651.1 946.812 1632.55 918.415 1613.96 885.025 1595.41 847.926 1576.81 810.094 1558.26 801.529 1539.71 805.147 1521.12 815.04 1502.57 801.895 1483.97 792.918 1465.42 804.643 1446.83 779.636 1428.28 767.178 1409.73 772.674 1391.13 767.956 1372.58 768.048 1353.99 773.819 1335.44 777.437 1316.84 778.72 1298.29 772.582 1279.74 782.521 1261.15 784.72 1242.6 786.506 1224 789.666 1205.45 800.201 1186.86 804.414 1168.31 809.59 1149.76 816.002 1131.16 822.323 1112.61 818.292Z" fill="#FF6718" fill-opacity="0.4" transform="matrix(1 0 0 1.0004 691.188 579)"/><path d="M1112.61 818.292 1131.16 822.323 1149.76 816.002 1168.31 809.59 1186.86 804.414 1205.45 800.201 1224 789.666 1242.6 786.506 1261.15 784.72 1279.74 782.521 1298.29 772.582 1316.84 778.72 1335.44 777.437 1353.99 773.819 1372.58 768.048 1391.13 767.956 1409.73 772.674 1428.28 767.178 1446.83 779.636 1465.42 804.643 1483.97 792.918 1502.57 801.895 1521.12 815.04 1539.71 805.147 1558.26 801.529 1576.81 810.094 1595.41 810.185 1613.96 808.536 1632.55 805.01 1651.1 803.819 1669.7 819.163 1688.25 806.796 1706.8 799.651 1725.39 796.674 1743.94 796.124 1762.54 794.796 1781.09 793.422 1799.68 792.048 1818.23 790.674 1836.78 789.3 1855.38 787.926" stroke="#BEBEBE" stroke-width="11.7252" stroke-linejoin="round" stroke-miterlimit="10" fill="none" transform="matrix(1 0 0 1.0004 691.188 579)"/><path d="M1112.61 818.292 1131.16 822.323 1149.76 816.002 1168.31 809.59 1186.86 804.414 1205.45 800.201 1224 789.666 1242.6 786.506 1261.15 784.72 1279.74 782.521 1298.29 772.582 1316.84 778.72 1335.44 777.437 1353.99 773.819 1372.58 768.048 1391.13 767.956 1409.73 772.674 1428.28 767.178 1446.83 779.636 1465.42 804.643 1483.97 792.918 1502.57 801.895 1521.12 815.04 1539.71 805.147 1558.26 801.529 1576.81 810.094 1595.41 847.926 1613.96 885.025 1632.55 918.415 1651.1 946.812 1669.7 962.293 1688.25 994.949 1706.8 1016.61 1725.39 1041.9 1743.94 1069.15 1762.54 1098.51 1781.09 1123.01 1799.68 1145.45 1818.23 1167.85 1836.78 1190.2 1855.38 1212.55" stroke="#FF6718" stroke-width="11.7252" stroke-linejoin="round" stroke-miterlimit="10" fill="none" transform="matrix(1 0 0 1.0004 691.188 579)"/><path d="M1866.78 994.903C1866.78 1001.2 1861.68 1006.31 1855.38 1006.31 1849.08 1006.31 1843.97 1001.2 1843.97 994.903 1843.97 988.605 1849.08 983.499 1855.38 983.499 1861.68 983.499 1866.78 988.605 1866.78 994.903Z" stroke="#004678" stroke-width="3.25192" stroke-linecap="round" stroke-linejoin="round" stroke-miterlimit="10" fill="#004678" transform="matrix(1 0 0 1.0004 691.188 579)"/><path d="M1866.78 1002C1866.78 1008.3 1861.68 1013.41 1855.38 1013.41 1849.08 1013.41 1843.97 1008.3 1843.97 1002 1843.97 995.704 1849.08 990.598 1855.38 990.598 1861.68 990.598 1866.78 995.704 1866.78 1002Z" stroke="#AFDAFF" stroke-width="3.25192" stroke-linecap="round" stroke-linejoin="round" stroke-miterlimit="10" fill="#AFDAFF" transform="matrix(1 0 0 1.0004 691.188 579)"/></g><g clip-path="url(#clip5)"><text fill="#1A1A1A" font-family="Arial,Arial_MSFontService,sans-serif" font-weight="700" font-size="8" transform="matrix(4.58016 0 0 4.58199 1192.26 1300)">THA</text></g><g clip-path="url(#clip6)"><text fill="#1A1A1A" font-family="Arial,Arial_MSFontService,sans-serif" font-weight="700" font-size="8" transform="matrix(4.58016 0 0 4.58199 2138.52 1300)">USA</text></g><g clip-path="url(#clip7)"><text fill="#1A1A1A" font-family="Arial,Arial_MSFontService,sans-serif" font-weight="700" font-size="8" transform="matrix(4.58016 0 0 4.58199 1196.84 654)">IDN</text></g><g clip-path="url(#clip8)"><text fill="#1A1A1A" font-family="Arial,Arial_MSFontService,sans-serif" font-weight="700" font-size="8" transform="matrix(4.58016 0 0 4.58199 2136.23 654)">MYS</text></g><path d="M129.206 1234.86 946.262 1234.86" stroke="#000000" stroke-width="4.90078" stroke-linejoin="round" stroke-miterlimit="10" fill="none" transform="matrix(1 0 0 1.0004 691.188 579)"/><path d="M166.352 1247.41 166.352 1234.86" stroke="#333333" stroke-width="4.90078" stroke-linejoin="round" stroke-miterlimit="10" fill="none" transform="matrix(1 0 0 1.0004 691.188 579)"/><path d="M352.031 1247.41 352.031 1234.86" stroke="#333333" stroke-width="4.90078" stroke-linejoin="round" stroke-miterlimit="10" fill="none" transform="matrix(1 0 0 1.0004 691.188 579)"/><path d="M537.711 1247.41 537.711 1234.86" stroke="#333333" stroke-width="4.90078" stroke-linejoin="round" stroke-miterlimit="10" fill="none" transform="matrix(1 0 0 1.0004 691.188 579)"/><path d="M723.437 1247.41 723.437 1234.86" stroke="#333333" stroke-width="4.90078" stroke-linejoin="round" stroke-miterlimit="10" fill="none" transform="matrix(1 0 0 1.0004 691.188 579)"/><path d="M909.117 1247.41 909.117 1234.86" stroke="#333333" stroke-width="4.90078" stroke-linejoin="round" stroke-miterlimit="10" fill="none" transform="matrix(1 0 0 1.0004 691.188 579)"/><text font-family="Arial,Arial_MSFontService,sans-serif" font-weight="400" font-size="8" transform="matrix(4.58016 0 0 4.58199 820.899 1877)">1990</text><text font-family="Arial,Arial_MSFontService,sans-serif" font-weight="400" font-size="8" transform="matrix(4.58016 0 0 4.58199 1006.58 1877)">2000</text><text font-family="Arial,Arial_MSFontService,sans-serif" font-weight="400" font-size="8" transform="matrix(4.58016 0 0 4.58199 1192.26 1877)">2010</text><text font-family="Arial,Arial_MSFontService,sans-serif" font-weight="400" font-size="8" transform="matrix(4.58016 0 0 4.58199 1377.98 1877)">2020</text><text font-family="Arial,Arial_MSFontService,sans-serif" font-weight="400" font-size="8" transform="matrix(4.58016 0 0 4.58199 1563.66 1877)">2030</text><path d="M1075.47 1234.86 1892.52 1234.86" stroke="#000000" stroke-width="4.90078" stroke-linejoin="round" stroke-miterlimit="10" fill="none" transform="matrix(1 0 0 1.0004 691.188 579)"/><path d="M1112.61 1247.41 1112.61 1234.86" stroke="#333333" stroke-width="4.90078" stroke-linejoin="round" stroke-miterlimit="10" fill="none" transform="matrix(1 0 0 1.0004 691.188 579)"/><path d="M1298.29 1247.41 1298.29 1234.86" stroke="#333333" stroke-width="4.90078" stroke-linejoin="round" stroke-miterlimit="10" fill="none" transform="matrix(1 0 0 1.0004 691.188 579)"/><path d="M1483.97 1247.41 1483.97 1234.86" stroke="#333333" stroke-width="4.90078" stroke-linejoin="round" stroke-miterlimit="10" fill="none" transform="matrix(1 0 0 1.0004 691.188 579)"/><path d="M1669.7 1247.41 1669.7 1234.86" stroke="#333333" stroke-width="4.90078" stroke-linejoin="round" stroke-miterlimit="10" fill="none" transform="matrix(1 0 0 1.0004 691.188 579)"/><path d="M1855.38 1247.41 1855.38 1234.86" stroke="#333333" stroke-width="4.90078" stroke-linejoin="round" stroke-miterlimit="10" fill="none" transform="matrix(1 0 0 1.0004 691.188 579)"/><text font-family="Arial,Arial_MSFontService,sans-serif" font-weight="400" font-size="8" transform="matrix(4.58016 0 0 4.58199 1767.16 1877)">1990</text><text font-family="Arial,Arial_MSFontService,sans-serif" font-weight="400" font-size="8" transform="matrix(4.58016 0 0 4.58199 1952.84 1877)">2000</text><text font-family="Arial,Arial_MSFontService,sans-serif" font-weight="400" font-size="8" transform="matrix(4.58016 0 0 4.58199 2138.52 1877)">2010</text><text font-family="Arial,Arial_MSFontService,sans-serif" font-weight="400" font-size="8" transform="matrix(4.58016 0 0 4.58199 2324.25 1877)">2020</text><text font-family="Arial,Arial_MSFontService,sans-serif" font-weight="400" font-size="8" transform="matrix(4.58016 0 0 4.58199 2509.93 1877)">2030</text><path d="M129.206 589.147 946.262 589.147" stroke="#000000" stroke-width="4.90078" stroke-linejoin="round" stroke-miterlimit="10" fill="none" transform="matrix(1 0 0 1.0004 691.188 579)"/><path d="M166.352 601.696 166.352 589.147" stroke="#333333" stroke-width="4.90078" stroke-linejoin="round" stroke-miterlimit="10" fill="none" transform="matrix(1 0 0 1.0004 691.188 579)"/><path d="M352.031 601.696 352.031 589.147" stroke="#333333" stroke-width="4.90078" stroke-linejoin="round" stroke-miterlimit="10" fill="none" transform="matrix(1 0 0 1.0004 691.188 579)"/><path d="M537.711 601.696 537.711 589.147" stroke="#333333" stroke-width="4.90078" stroke-linejoin="round" stroke-miterlimit="10" fill="none" transform="matrix(1 0 0 1.0004 691.188 579)"/><path d="M723.437 601.696 723.437 589.147" stroke="#333333" stroke-width="4.90078" stroke-linejoin="round" stroke-miterlimit="10" fill="none" transform="matrix(1 0 0 1.0004 691.188 579)"/><path d="M909.117 601.696 909.117 589.147" stroke="#333333" stroke-width="4.90078" stroke-linejoin="round" stroke-miterlimit="10" fill="none" transform="matrix(1 0 0 1.0004 691.188 579)"/><text font-family="Arial,Arial_MSFontService,sans-serif" font-weight="400" font-size="8" transform="matrix(4.58016 0 0 4.58199 820.899 1231)">1990</text><text font-family="Arial,Arial_MSFontService,sans-serif" font-weight="400" font-size="8" transform="matrix(4.58016 0 0 4.58199 1006.58 1231)">2000</text><text font-family="Arial,Arial_MSFontService,sans-serif" font-weight="400" font-size="8" transform="matrix(4.58016 0 0 4.58199 1192.26 1231)">2010</text><text font-family="Arial,Arial_MSFontService,sans-serif" font-weight="400" font-size="8" transform="matrix(4.58016 0 0 4.58199 1377.98 1231)">2020</text><text font-family="Arial,Arial_MSFontService,sans-serif" font-weight="400" font-size="8" transform="matrix(4.58016 0 0 4.58199 1563.66 1231)">2030</text><path d="M1075.47 589.147 1892.52 589.147" stroke="#000000" stroke-width="4.90078" stroke-linejoin="round" stroke-miterlimit="10" fill="none" transform="matrix(1 0 0 1.0004 691.188 579)"/><path d="M1112.61 601.696 1112.61 589.147" stroke="#333333" stroke-width="4.90078" stroke-linejoin="round" stroke-miterlimit="10" fill="none" transform="matrix(1 0 0 1.0004 691.188 579)"/><path d="M1298.29 601.696 1298.29 589.147" stroke="#333333" stroke-width="4.90078" stroke-linejoin="round" stroke-miterlimit="10" fill="none" transform="matrix(1 0 0 1.0004 691.188 579)"/><path d="M1483.97 601.696 1483.97 589.147" stroke="#333333" stroke-width="4.90078" stroke-linejoin="round" stroke-miterlimit="10" fill="none" transform="matrix(1 0 0 1.0004 691.188 579)"/><path d="M1669.7 601.696 1669.7 589.147" stroke="#333333" stroke-width="4.90078" stroke-linejoin="round" stroke-miterlimit="10" fill="none" transform="matrix(1 0 0 1.0004 691.188 579)"/><path d="M1855.38 601.696 1855.38 589.147" stroke="#333333" stroke-width="4.90078" stroke-linejoin="round" stroke-miterlimit="10" fill="none" transform="matrix(1 0 0 1.0004 691.188 579)"/><text font-family="Arial,Arial_MSFontService,sans-serif" font-weight="400" font-size="8" transform="matrix(4.58016 0 0 4.58199 1767.16 1231)">1990</text><text font-family="Arial,Arial_MSFontService,sans-serif" font-weight="400" font-size="8" transform="matrix(4.58016 0 0 4.58199 1952.84 1231)">2000</text><text font-family="Arial,Arial_MSFontService,sans-serif" font-weight="400" font-size="8" transform="matrix(4.58016 0 0 4.58199 2138.52 1231)">2010</text><text font-family="Arial,Arial_MSFontService,sans-serif" font-weight="400" font-size="8" transform="matrix(4.58016 0 0 4.58199 2324.25 1231)">2020</text><text font-family="Arial,Arial_MSFontService,sans-serif" font-weight="400" font-size="8" transform="matrix(4.58016 0 0 4.58199 2509.93 1231)">2030</text><text font-family="Arial,Arial_MSFontService,sans-serif" font-weight="400" font-size="8" transform="matrix(4.58016 0 0 4.58199 1725.76 1160)">0</text><text font-family="Arial,Arial_MSFontService,sans-serif" font-weight="400" font-size="8" transform="matrix(4.58016 0 0 4.58199 1689.11 1049)">100</text><text font-family="Arial,Arial_MSFontService,sans-serif" font-weight="400" font-size="8" transform="matrix(4.58016 0 0 4.58199 1689.11 939)">200</text><text font-family="Arial,Arial_MSFontService,sans-serif" font-weight="400" font-size="8" transform="matrix(4.58016 0 0 4.58199 1689.11 828)">300</text><text font-family="Arial,Arial_MSFontService,sans-serif" font-weight="400" font-size="8" transform="matrix(4.58016 0 0 4.58199 1689.11 718)">400</text><text font-family="Arial,Arial_MSFontService,sans-serif" font-weight="400" font-size="8" transform="matrix(4.58016 0 0 4.58199 1725.76 1766)">0</text><text font-family="Arial,Arial_MSFontService,sans-serif" font-weight="400" font-size="8" transform="matrix(4.58016 0 0 4.58199 1670.79 1658)">2000</text><text font-family="Arial,Arial_MSFontService,sans-serif" font-weight="400" font-size="8" transform="matrix(4.58016 0 0 4.58199 1670.79 1551)">4000</text><text font-family="Arial,Arial_MSFontService,sans-serif" font-weight="400" font-size="8" transform="matrix(4.58016 0 0 4.58199 1670.79 1443)">6000</text><text font-family="Arial,Arial_MSFontService,sans-serif" font-weight="400" font-size="8" transform="matrix(4.58016 0 0 4.58199 779.494 1163)">0</text><text font-family="Arial,Arial_MSFontService,sans-serif" font-weight="400" font-size="8" transform="matrix(4.58016 0 0 4.58199 742.853 1048)">500</text><text font-family="Arial,Arial_MSFontService,sans-serif" font-weight="400" font-size="8" transform="matrix(4.58016 0 0 4.58199 724.532 933)">1000</text><text font-family="Arial,Arial_MSFontService,sans-serif" font-weight="400" font-size="8" transform="matrix(4.58016 0 0 4.58199 724.532 818)">1500</text><text font-family="Arial,Arial_MSFontService,sans-serif" font-weight="400" font-size="8" transform="matrix(4.58016 0 0 4.58199 724.532 703)">2000</text><text font-family="Arial,Arial_MSFontService,sans-serif" font-weight="400" font-size="8" transform="matrix(4.58016 0 0 4.58199 779.494 1812)">0</text><text font-family="Arial,Arial_MSFontService,sans-serif" font-weight="400" font-size="8" transform="matrix(4.58016 0 0 4.58199 742.853 1712)">100</text><text font-family="Arial,Arial_MSFontService,sans-serif" font-weight="400" font-size="8" transform="matrix(4.58016 0 0 4.58199 742.853 1611)">200</text><text font-family="Arial,Arial_MSFontService,sans-serif" font-weight="400" font-size="8" transform="matrix(4.58016 0 0 4.58199 742.853 1511)">300</text><text font-family="Arial,Arial_MSFontService,sans-serif" font-weight="400" font-size="8" transform="matrix(4.58016 0 0 4.58199 742.853 1410)">400</text><text font-family="Arial,Arial_MSFontService,sans-serif" font-weight="400" font-size="37" transform="matrix(1 0 0 1 818.353 709)">MtCO</text><text font-family="Arial,Arial_MSFontService,sans-serif" font-weight="400" font-size="24" transform="matrix(1 0 0 1 914.03 717)">2</text><text font-family="Arial,Arial_MSFontService,sans-serif" font-weight="400" font-size="37" transform="matrix(1 0 0 1 927.78 709)">e</text><text fill="#AFDAFF" font-family="Arial,Arial_MSFontService,sans-serif" font-weight="700" font-size="37" transform="matrix(1 0 0 1 1254.76 791)">NDC conditional</text><text fill="#004678" font-family="Arial,Arial_MSFontService,sans-serif" font-weight="700" font-size="37" transform="matrix(1 0 0 1 1253.39 723)">NDC </text><text fill="#004678" font-family="Arial,Arial_MSFontService,sans-serif" font-weight="700" font-size="37" transform="matrix(1 0 0 1 1342.77 723)">uncon</text><text fill="#004678" font-family="Arial,Arial_MSFontService,sans-serif" font-weight="700" font-size="37" transform="matrix(1 0 0 1 1452.77 723)">.</text><text fill="#FF6718" font-family="Arial,Arial_MSFontService,sans-serif" font-weight="400" font-size="37" transform="matrix(1 0 0 1 1286.04 1025)">Emission allowance</text><text fill="#909090" font-family="Arial,Arial_MSFontService,sans-serif" font-weight="400" font-size="37" transform="matrix(1 0 0 1 1292.06 871)">Projected emission</text></g></svg>