<svg width="3022" height="2018" xmlns="http://www.w3.org/2000/svg" xmlns:xlink="http://www.w3.org/1999/xlink" xml:space="preserve" overflow="hidden"><defs><clipPath id="clip0"><rect x="115" y="217" width="3022" height="2018"/></clipPath></defs><g clip-path="url(#clip0)" transform="translate(-115 -217)"><rect x="165.5" y="276.5" width="2970" height="1935" stroke="#FFFFFF" stroke-width="3.4375" stroke-linecap="round" stroke-linejoin="round" stroke-miterlimit="10" fill="#FFFFFF"/><rect x="131.5" y="297.5" width="2970" height="1935" stroke="#FFFFFF" stroke-width="4.89009" stroke-linecap="round" stroke-linejoin="round" stroke-miterlimit="10" fill="#FFFFFF"/><path d="M374 1751 3110 1751 3110 1751" stroke="#FFFFFF" stroke-width="2.44505" stroke-linejoin="round" stroke-miterlimit="10" fill="none" fill-rule="evenodd"/><path d="M374 1356 3110 1356 3110 1356" stroke="#FFFFFF" stroke-width="2.44505" stroke-linejoin="round" stroke-miterlimit="10" fill="none" fill-rule="evenodd"/><path d="M374 960 3110 960 3110 960" stroke="#FFFFFF" stroke-width="2.44505" stroke-linejoin="round" stroke-miterlimit="10" fill="none" fill-rule="evenodd"/><path d="M374 565 3110 565 3110 565" stroke="#FFFFFF" stroke-width="2.44505" stroke-linejoin="round" stroke-miterlimit="10" fill="none" fill-rule="evenodd"/><path d="M374.5 1949.5 3110.5 1949.5 3110.5 1949.5" stroke="#D3D3D3" stroke-width="4.89009" stroke-linejoin="round" stroke-miterlimit="10" fill="none" fill-rule="evenodd"/><path d="M374.5 1553.5 3110.5 1553.5 3110.5 1553.5" stroke="#D3D3D3" stroke-width="4.89009" stroke-linejoin="round" stroke-miterlimit="10" fill="none" fill-rule="evenodd"/><path d="M374.5 1158.5 3110.5 1158.5 3110.5 1158.5" stroke="#D3D3D3" stroke-width="4.89009" stroke-linejoin="round" stroke-miterlimit="10" fill="none" fill-rule="evenodd"/><path d="M374.5 762.5 3110.5 762.5 3110.5 762.5" stroke="#D3D3D3" stroke-width="4.89009" stroke-linejoin="round" stroke-miterlimit="10" fill="none" fill-rule="evenodd"/><path d="M374.5 367.5 3110.5 367.5 3110.5 367.5" stroke="#D3D3D3" stroke-width="4.89009" stroke-linejoin="round" stroke-miterlimit="10" fill="none" fill-rule="evenodd"/><path d="M744 1768 765 1743 786 1768 765 1793Z" fill="#004678" fill-rule="evenodd"/><path d="M2046 1916 2067.5 1891 2089 1916 2067.5 1941Z" fill="#004678" fill-rule="evenodd"/><path d="M2698 1293 2719 1268 2740 1293 2719 1318Z" fill="#004678" fill-rule="evenodd"/><path d="M1395 1924 1416 1899 1437 1924 1416 1949Z" fill="#004678" fill-rule="evenodd"/><path d="M744 1704 765 1679 786 1704 765 1729Z" fill="#AFDAFF" fill-rule="evenodd"/><path d="M2046 1905 2067.5 1880 2089 1905 2067.5 1930Z" fill="#AFDAFF" fill-rule="evenodd"/><path d="M2698 1267 2719 1242 2740 1267 2719 1292Z" fill="#AFDAFF" fill-rule="evenodd"/><path d="M1395 1924 1416 1899 1437 1924 1416 1949Z" fill="#AFDAFF" fill-rule="evenodd"/><path d="M744 1879.5 765 1854 786 1879.5 765 1905Z" fill="#BF9000" fill-rule="evenodd"/><path d="M2046 1922 2067.5 1897 2089 1922 2067.5 1947Z" fill="#BF9000" fill-rule="evenodd"/><path d="M2698 1239.5 2719 1214 2740 1239.5 2719 1265Z" fill="#BF9000" fill-rule="evenodd"/><path d="M1395 1952.5 1416 1927 1437 1952.5 1416 1978Z" fill="#BF9000" fill-rule="evenodd"/><path d="M744 1855 765 1830 786 1855 765 1880Z" fill="#FFC000" fill-rule="evenodd"/><path d="M2046 1913 2067.5 1888 2089 1913 2067.5 1938Z" fill="#FFC000" fill-rule="evenodd"/><path d="M2698 1211 2719 1186 2740 1211 2719 1236Z" fill="#FFC000" fill-rule="evenodd"/><path d="M739.5 1954.5 791.5 1892.5" stroke="#FF0000" stroke-width="12.9921" stroke-linecap="round" stroke-linejoin="round" stroke-miterlimit="10" fill="none" fill-rule="evenodd"/><path d="M739.5 1892.5 791.5 1954.5" stroke="#FF0000" stroke-width="12.9921" stroke-linecap="round" stroke-linejoin="round" stroke-miterlimit="10" fill="none" fill-rule="evenodd"/><path d="M2042.5 1959.5 2094.5 1898.5" stroke="#FF0000" stroke-width="12.9921" stroke-linecap="round" stroke-linejoin="round" stroke-miterlimit="10" fill="none" fill-rule="evenodd"/><path d="M2042.5 1898.5 2094.5 1959.5" stroke="#FF0000" stroke-width="12.9921" stroke-linecap="round" stroke-linejoin="round" stroke-miterlimit="10" fill="none" fill-rule="evenodd"/><path d="M2693.5 415.5 2745.5 353.5" stroke="#FF0000" stroke-width="12.9921" stroke-linecap="round" stroke-linejoin="round" stroke-miterlimit="10" fill="none" fill-rule="evenodd"/><path d="M2693.5 353.5 2745.5 415.5" stroke="#FF0000" stroke-width="12.9921" stroke-linecap="round" stroke-linejoin="round" stroke-miterlimit="10" fill="none" fill-rule="evenodd"/><path d="M1390.5 1955.5 1442.5 1893.5" stroke="#FF0000" stroke-width="12.9921" stroke-linecap="round" stroke-linejoin="round" stroke-miterlimit="10" fill="none" fill-rule="evenodd"/><path d="M1390.5 1893.5 1442.5 1955.5" stroke="#FF0000" stroke-width="12.9921" stroke-linecap="round" stroke-linejoin="round" stroke-miterlimit="10" fill="none" fill-rule="evenodd"/><text fill="#4D4D4D" font-family="Arial,Arial_MSFontService,sans-serif" font-weight="400" font-size="64" transform="matrix(1 0 0 1 287.057 1979)">0</text><text fill="#4D4D4D" font-family="Arial,Arial_MSFontService,sans-serif" font-weight="400" font-size="64" transform="matrix(1 0 0 1 197.07 1584)">2000</text><text fill="#4D4D4D" font-family="Arial,Arial_MSFontService,sans-serif" font-weight="400" font-size="64" transform="matrix(1 0 0 1 197.07 1188)">4000</text><text fill="#4D4D4D" font-family="Arial,Arial_MSFontService,sans-serif" font-weight="400" font-size="64" transform="matrix(1 0 0 1 197.07 793)">6000</text><text fill="#4D4D4D" font-family="Arial,Arial_MSFontService,sans-serif" font-weight="400" font-size="64" transform="matrix(1 0 0 1 197.07 397)">8000</text><path d="M374 2031 3110 2031" stroke="#000000" stroke-width="9.78054" stroke-linejoin="round" stroke-miterlimit="10" fill="none" fill-rule="evenodd"/><path d="M765 2046 765 2031" stroke="#333333" stroke-width="9.78054" stroke-linejoin="round" stroke-miterlimit="10" fill="none" fill-rule="evenodd"/><path d="M1416 2046 1416 2031" stroke="#333333" stroke-width="9.78054" stroke-linejoin="round" stroke-miterlimit="10" fill="none" fill-rule="evenodd"/><path d="M2068 2046 2068 2031" stroke="#333333" stroke-width="9.78054" stroke-linejoin="round" stroke-miterlimit="10" fill="none" fill-rule="evenodd"/><path d="M2719 2046 2719 2031" stroke="#333333" stroke-width="9.78054" stroke-linejoin="round" stroke-miterlimit="10" fill="none" fill-rule="evenodd"/><text font-family="Arial,Arial_MSFontService,sans-serif" font-weight="400" font-size="64" transform="matrix(1 0 0 1 715.416 2140)">IDN</text><text font-family="Arial,Arial_MSFontService,sans-serif" font-weight="400" font-size="64" transform="matrix(1 0 0 1 1352.47 2140)">MYS</text><text font-family="Arial,Arial_MSFontService,sans-serif" font-weight="400" font-size="64" transform="matrix(1 0 0 1 2009.29 2140)">THA</text><text font-family="Arial,Arial_MSFontService,sans-serif" font-weight="400" font-size="64" transform="matrix(1 0 0 1 2658.66 2140)">USA</text><text font-family="Arial,Arial_MSFontService,sans-serif" font-weight="400" font-size="64" transform="matrix(1 0 0 1 197.886 298)">MtCO2e</text></g></svg>